<?xml version="1.0" encoding="utf-8"?>
<!-- Generator: Adobe Illustrator 23.0.5, SVG Export Plug-In . SVG Version: 6.00 Build 0)  -->
<svg version="1.1" id="Layer_1" xmlns="http://www.w3.org/2000/svg" xmlns:xlink="http://www.w3.org/1999/xlink" x="0px" y="0px"
	 viewBox="0 0 300 50" style="enable-background:new 0 0 300 50;" xml:space="preserve">
<style type="text/css">
	.st0{fill:#1173BA;}
	.st1{fill:#303030;}
	.st2{fill:#1173BB;}
	.st3{fill:#313130;}
	.st4{fill:#313030;}
</style>
<g>
	<path class="st0" d="M179.9,0.1c5.5,0,10.9,0,16.4,0c0.4,0,0.5,0.1,0.5,0.5c0,2.9,0,5.7,0,8.6c0,0.4-0.1,0.5-0.5,0.5
		c-3.3,0-6.5,0-9.8,0c-0.4,0-0.5,0.1-0.5,0.5c0,8.7,0,17.4,0,26.1c0,0.4-0.1,0.5-0.5,0.5c-3.8,0-7.6,0-11.4,0
		c-0.4,0-0.5-0.1-0.5-0.5c0-8.7,0-17.4,0-26c0-0.4-0.1-0.5-0.5-0.5c-3.3,0-6.5,0-9.8,0c-0.3,0-0.5-0.1-0.5-0.4c0-2.9,0-5.9,0-8.8
		c0-0.3,0.1-0.4,0.4-0.4C169,0.1,174.5,0.1,179.9,0.1z"/>
	<path class="st1" d="M163.1,18.6c0,9.6-7.6,18-18.1,18.1c-10.2,0-18.1-8.1-18.1-18c0-10.1,8.1-17.9,17.5-18.2
		C154.6,0.1,163.1,8.4,163.1,18.6z"/>
	<path class="st1" d="M106.8,36.7c-0.2,0-0.4,0-0.5,0c-4.1,0-8.2,0-12.4,0c-0.3,0-0.5-0.1-0.7-0.4c-1.1-1.7-2.2-3.5-3.3-5.2
		c-0.1-0.1-0.2-0.3-0.3-0.4c-0.7,0.9-1.3,1.8-2,2.7c-0.7,1-1.4,2-2.2,3c-0.1,0.2-0.3,0.3-0.5,0.3c-4,0-8,0-12,0c-0.1,0-0.1,0-0.3,0
		c0.4-0.5,0.7-1,1.1-1.4c3.1-4.1,6.2-8.1,9.3-12.2c0.2-0.3,0.2-0.4,0-0.7c-3.3-4.5-6.5-8.9-9.7-13.4c-0.1-0.1-0.2-0.3-0.3-0.4
		c0.2-0.1,0.3-0.1,0.4-0.1c4.1,0,8.2,0,12.2,0c0.3,0,0.5,0.1,0.7,0.4c1.2,1.9,2.5,3.7,3.8,5.6c0.8-1.1,1.5-2.2,2.3-3.2
		c0.6-0.8,1.2-1.6,1.7-2.5c0.1-0.2,0.2-0.3,0.5-0.3c3.9,0,7.8,0,11.6,0c0.1,0,0.1,0,0.3,0c-0.7,1-1.5,1.9-2.2,2.9
		c-2.7,3.5-5.3,7-8,10.5c-0.2,0.2-0.1,0.3,0,0.5c2.9,4,5.9,8,8.8,12C105.7,35.2,106.2,35.9,106.8,36.7z"/>
	<path class="st1" d="M215.7,28.3c1,0,2,0,2.9,0c2.9,0,5.9,0,8.8,0c0.3,0,0.5,0.1,0.5,0.4c0,2.6,0,5.1,0,7.7c0,0.3-0.1,0.4-0.4,0.4
		c-8.7,0-17.4,0-26.1,0c-0.3,0-0.4-0.1-0.4-0.4c0-2,0-4,0-6c0-0.3,0.1-0.5,0.3-0.7c3.8-4.2,7.5-8.3,11.3-12.5
		c-0.1-0.1-0.3-0.1-0.4-0.1c-3.4,0-6.8,0-10.2,0c-0.4,0-0.5-0.1-0.5-0.5c0-2.5,0-5.1,0-7.6c0-0.3,0.1-0.4,0.4-0.4
		c8.4,0,16.7,0,25.1,0c0.3,0,0.4,0,0.4,0.4c0,2,0,3.9,0,5.9c0,0.3-0.1,0.4-0.3,0.6c-3.7,4.2-7.5,8.3-11.2,12.5
		C215.8,28.1,215.8,28.1,215.7,28.3z"/>
	<path class="st2" d="M123.4,18.8c0,5.9,0,11.9,0,17.8c0,0.4-0.1,0.5-0.5,0.5c-3.8,0-7.6,0-11.4,0c-0.4,0-0.4-0.1-0.4-0.4
		c0-11.9,0-23.9,0-35.8c0-0.4,0.1-0.4,0.4-0.4c3.8,0,7.6,0,11.5,0c0.4,0,0.5,0.1,0.5,0.5C123.4,6.9,123.4,12.8,123.4,18.8z"/>
	<path class="st1" d="M220.5,42c1.3-1,2.9-0.7,3.6,0.3c0.7-0.7,1.5-1,2.5-0.8c1.1,0.2,1.9,1,1.9,2.5c0,1.1,0,2.3,0,3.4
		c0,0.2,0,0.3-0.2,0.3c-0.7,0-1.4,0-2.1,0c-0.2,0-0.2-0.1-0.2-0.3c0-0.9,0-1.8,0-2.7c0-0.2,0-0.4-0.1-0.5c-0.1-0.3-0.3-0.5-0.6-0.5
		c-0.3,0-0.5,0.1-0.6,0.4c-0.1,0.2-0.1,0.5-0.1,0.8c0,0.9,0,1.7,0,2.6c0,0.2-0.1,0.3-0.3,0.3c-0.6,0-1.3,0-1.9,0
		c-0.3,0-0.3-0.1-0.3-0.3c0-1,0-2,0-2.9c0-0.3-0.1-0.7-0.5-0.7c-0.5-0.1-0.9,0.2-0.9,0.8c0,0.8,0,1.6,0,2.5c0,0.8,0,0.8-0.7,0.8
		c-0.5,0-1,0-1.5,0c-0.2,0-0.3,0-0.3-0.3c0-1.8,0-3.7,0-5.5c0-0.2,0.1-0.3,0.3-0.3c0.6,0,1.1,0,1.7,0
		C220.4,41.5,220.6,41.6,220.5,42z"/>
	<path class="st1" d="M93.5,42.7c-0.3-0.5-0.8-0.9-1.4-1.1c-0.9-0.3-1.7-0.3-2.5,0.3c0-0.8,0-1.5,0-2.2c0-0.2-0.1-0.3-0.3-0.3
		c-0.6,0-1.3,0-1.9,0c-0.3,0-0.3,0.1-0.3,0.3c0,2.5,0,5.1,0,7.6c0,0.3,0.1,0.3,0.3,0.3c0.6,0,1.1,0,1.7,0c0.3,0,0.5,0,0.4-0.4
		c1.2,0.9,2.9,0.5,3.6-0.2C94.1,45.9,94.3,44,93.5,42.7z M90.1,45.6c-0.5-0.2-0.7-0.9-0.5-1.5c0.1-0.5,0.6-0.7,1.1-0.7
		c0.5,0.1,0.8,0.5,0.8,1.1C91.4,45.5,90.8,46,90.1,45.6z"/>
	<path class="st1" d="M184.1,42c-0.3-1.3-1.5-2-3-2.1c-1.3-0.1-2.6,0-3.8,0c-0.3,0-0.4,0.1-0.3,0.4c0,1.2,0,2.3,0,3.5
		c0,1.2,0,2.4,0,3.6c0,0.2,0.1,0.3,0.3,0.3c0.7,0,1.4,0,2,0c0.3,0,0.3-0.1,0.3-0.3c0-0.4,0-0.9,0-1.3c0-0.2,0.1-0.3,0.3-0.3
		c0.5,0,1.1,0,1.6-0.1C183.4,45.5,184.6,43.8,184.1,42z M181.5,42.9c0,0.4-0.2,0.6-0.6,0.7c-0.1,0-0.2,0-0.3,0
		c-1.1,0.2-1.1,0.2-1.1-0.9c0-1,0-1,1.1-0.9C181.3,41.9,181.6,42.3,181.5,42.9z"/>
	<path class="st1" d="M118.9,47.4c-1.1-2.4-2.1-4.9-3.2-7.3c-0.1-0.2-0.2-0.2-0.4-0.2c-0.7,0-1.4,0-2,0c-0.2,0-0.3,0.1-0.4,0.3
		c-0.5,1.1-0.9,2.1-1.4,3.2c-0.6,1.4-1.2,2.8-1.9,4.3c0.5,0,1,0,1.4,0c0.4,0,0.9,0.1,1.2-0.1c0.3-0.2,0.3-0.7,0.5-1.1
		c0.1-0.2,0.2-0.3,0.4-0.2c0.5,0,1,0,1.5,0c0.4,0,0.8-0.1,1.1,0.1c0.3,0.2,0.3,0.6,0.4,1c0,0.1,0.1,0.1,0.1,0.2
		c0,0.1,0.1,0.2,0.2,0.2c0.8,0,1.7,0,2.5,0C119,47.5,119,47.5,118.9,47.4z M113.6,44.3c0.2-0.6,0.5-1.2,0.7-1.9
		c0.3,0.7,0.5,1.3,0.7,1.9H113.6z"/>
	<path class="st1" d="M75.7,39.7c1.3,0,2.4,0.3,3.3,1.3c0.2,0.2,0.2,0.3,0,0.5c-0.4,0.3-0.8,0.7-1.2,1c-0.2,0.2-0.3,0.2-0.5,0
		c-0.6-0.6-1.3-0.8-2.1-0.6c-0.2,0.1-0.4,0.2-0.5,0.3c-0.8,0.7-0.9,2.1-0.2,2.9c0.7,0.8,1.9,0.8,2.7,0c0.3-0.3,0.5-0.3,0.7,0
		c0.3,0.3,0.7,0.6,1.1,0.9c0.2,0.2,0.2,0.3,0,0.5c-0.7,0.8-1.6,1.2-2.7,1.3c-1.2,0.1-2.4-0.1-3.4-0.8c-1.3-1-1.8-2.4-1.5-3.9
		c0.2-1.5,1.2-2.5,2.6-3.1C74.6,39.7,75.2,39.6,75.7,39.7z"/>
	<path class="st1" d="M83,44.8c0.4-1,0.8-2,1.1-2.9c0.1-0.2,0.2-0.3,0.5-0.3c0.6,0,1.2,0,1.8,0c0.2,0,0.3,0,0.2,0.3
		c-0.8,2.1-1.7,4.2-2.5,6.2c-0.9,2.1-3,2.2-4.4,1.5c-0.2-0.1-0.3-0.2-0.2-0.5c0.2-0.4,0.4-0.8,0.6-1.2c0.1-0.2,0.2-0.2,0.4-0.1
		c0.1,0.1,0.3,0.1,0.5,0.2c0.3,0,0.5,0,0.7-0.2c0.1-0.2-0.1-0.4-0.1-0.5c-0.7-1.8-1.5-3.5-2.2-5.3c-0.1-0.3-0.1-0.4,0.2-0.4
		c0.6,0,1.3,0,1.9,0c0.2,0,0.3,0.1,0.4,0.3C82.2,42.8,82.6,43.7,83,44.8z"/>
	<path class="st1" d="M154,42.1c0.8-0.6,1.6-0.8,2.4-0.6c1.1,0.2,1.9,1.1,1.9,2.3c0,1.2,0,2.4,0,3.5c0,0.2-0.1,0.3-0.3,0.3
		c-0.6,0-1.3,0-1.9,0c-0.3,0-0.3-0.1-0.3-0.4c0-0.9,0-1.8,0-2.7c0-0.7-0.2-1-0.7-1c-0.5,0-0.9,0.4-0.9,1c0,0.9,0,1.8,0,2.7
		c0,0.3-0.1,0.4-0.4,0.4c-0.6,0-1.2,0-1.9,0c-0.2,0-0.3-0.1-0.3-0.3c0-1.8,0-3.6,0-5.5c0-0.3,0.1-0.3,0.3-0.3c0.5,0,1,0,1.5,0
		C153.8,41.5,154.2,41.5,154,42.1z"/>
	<path class="st1" d="M136,47.1c-0.9,0.7-1.9,0.8-3,0.3c-0.8-0.4-1.1-1-1.2-1.8c-0.1-1.3,0-2.5-0.1-3.8c0-0.2,0.1-0.3,0.3-0.3
		c0.7,0,1.3,0,2,0c0.3,0,0.3,0.1,0.3,0.3c0,0.8,0,1.6,0,2.5c0,0.2,0,0.4,0.1,0.6c0.1,0.4,0.2,0.6,0.6,0.6c0.4,0,0.7-0.2,0.8-0.5
		c0.1-0.2,0.1-0.4,0.1-0.6c0-0.8,0-1.7,0-2.5c0-0.3,0-0.4,0.4-0.4c0.6,0,1.2,0,1.9,0c0.2,0,0.3,0.1,0.3,0.3c0,1.8,0,3.7,0,5.5
		c0,0.2-0.1,0.3-0.3,0.3c-0.5,0-1.1,0-1.6,0C136.1,47.6,136.1,47.6,136,47.1z"/>
	<path class="st1" d="M211,42.1c-0.9-0.6-1.9-0.8-3-0.6c-2.1,0.3-3.3,2.3-2.6,4.2c0.4,1.2,1.8,2,3.3,2c0.4,0,0.7,0,1.1-0.1
		c1.2-0.3,2.1-1.1,2.4-2.4C212.5,43.9,212.1,42.8,211,42.1z M209.2,45.6c-0.3,0.2-0.7,0.2-1,0c-0.4-0.2-0.5-0.7-0.5-1.1
		c0-0.7,0.3-1.1,0.9-1.1c0.6,0,1,0.3,1,1C209.7,44.9,209.7,45.3,209.2,45.6z"/>
	<path class="st1" d="M194.7,43.9c-0.1-1.1-0.6-1.9-1.7-2.2c-1.3-0.4-2.5-0.3-3.7,0.2c-0.6,0.2-0.6,0.2-0.3,0.8
		c0.1,0.1,0.1,0.3,0.2,0.4c0.1,0.2,0.2,0.5,0.4,0.7c0.1,0.1,0.4-0.2,0.6-0.3c0.6-0.2,1.2-0.3,1.8,0.1c0.1,0.1,0.3,0.2,0.2,0.4
		c-0.1,0.2-0.2,0.1-0.3,0.1c-0.7,0-1.4,0-2.1,0.2c-0.7,0.2-1.1,0.6-1.2,1.4c-0.1,0.7,0.1,1.3,0.7,1.7c0.9,0.7,2.4,0.6,3.3-0.3
		c0,0.1,0,0.2,0,0.2c-0.1,0.3,0.1,0.5,0.4,0.4c0.6,0,1.1,0,1.7,0c0.2,0,0.3-0.1,0.3-0.3C194.7,46.2,194.8,45,194.7,43.9z
		 M191.8,46.1c-0.1,0.1-0.2,0.1-0.4,0.1c-0.3,0-0.5-0.1-0.6-0.4c0-0.3,0.2-0.5,0.5-0.5c0.1,0,0.2,0,0.3,0c0.2,0,0.5-0.1,0.5,0.1
		C192.3,45.7,192.1,45.9,191.8,46.1z"/>
	<path class="st1" d="M150.6,44.1c0-1-0.4-1.9-1.4-2.4c-1.5-0.6-3-0.4-4.4,0.2c-0.2,0.1-0.2,0.2-0.1,0.3c0.2,0.5,0.5,1,0.7,1.5
		c0.6-0.4,1.3-0.6,2-0.4c0.4,0.1,0.6,0.2,0.7,0.7c-0.4,0-0.7,0-1,0c-0.5,0-1,0-1.4,0.2c-0.8,0.3-1.2,0.8-1.3,1.5
		c0,0.8,0.4,1.5,1.1,1.8c1,0.4,2.1,0.2,2.8-0.5c0,0.1,0,0.1,0,0.2c-0.1,0.4,0.1,0.5,0.5,0.5c0.5,0,1.1,0,1.6,0c0.2,0,0.3,0,0.3-0.3
		C150.6,46.3,150.6,45.2,150.6,44.1z M147.6,46.1c-0.1,0.1-0.2,0.1-0.4,0.1c-0.3,0-0.5-0.1-0.6-0.4c0-0.3,0.2-0.4,0.5-0.5
		c0.1,0,0.2,0,0.3,0c0.2,0,0.5-0.1,0.5,0.2C148.1,45.7,147.9,45.9,147.6,46.1z"/>
	<path class="st1" d="M171.7,42.2c-1.1-0.9-2.8-1-4.2-0.3c-2,1.1-2.1,3.9-0.2,5.2c0.7,0.5,1.6,0.6,2.4,0.6c0.9,0,1.7-0.2,2.3-0.7
		c0.2-0.2,0.3-0.3,0-0.5c-0.2-0.2-0.4-0.4-0.6-0.6c-0.3-0.4-0.6-0.5-1.1-0.2c-0.5,0.3-1.2,0.3-1.7-0.2c-0.1-0.1-0.2-0.2-0.2-0.3
		c0-0.2,0.2-0.1,0.3-0.1c0.6,0,1.2,0,1.7,0c0.6,0,1.2,0,1.8,0c0.1,0,0.3,0,0.3-0.2C172.8,43.9,172.6,42.9,171.7,42.2z M168.7,43.9
		c-0.2,0-0.2-0.1-0.1-0.2c0.1-0.4,0.5-0.6,1-0.5c0.5,0,0.7,0.3,0.8,0.8C169.8,43.9,169.2,43.9,168.7,43.9z"/>
	<path class="st1" d="M100.4,42.4c-1-1-2.7-1.3-4.1-0.7c-1.9,0.8-2.5,3.2-1.2,4.7c0.9,1,2.1,1.3,3.3,1.2c0.7,0,1.4-0.2,2-0.7
		c0.2-0.2,0.3-0.3,0.1-0.6c-0.3-0.2-0.6-0.5-0.8-0.8c-0.2-0.2-0.3-0.2-0.5-0.1c-0.6,0.4-1.9,0.4-2.1-0.4h0.5c1.1,0,2.3,0,3.4,0
		c0.1,0,0.3,0.1,0.3-0.2C101.3,44,101.1,43.1,100.4,42.4z M97,43.9c0.1-0.6,0.4-0.8,1-0.8c0.5,0,0.8,0.3,0.9,0.8H97z"/>
	<path class="st1" d="M121.6,47.7c-0.8,0-1.6-0.1-2.4-0.4c-0.2-0.1-0.4-0.2-0.2-0.5c0,0,0-0.1,0-0.1c0.2-0.4,0.2-0.9,0.5-1.1
		c0.3-0.2,0.7,0.2,1.1,0.3c0.4,0.1,0.9,0.1,1.4,0.1c0.2,0,0.4,0,0.4-0.2c0-0.3-0.2-0.2-0.4-0.3c-0.5-0.1-1.1-0.2-1.6-0.3
		c-0.8-0.2-1.3-0.6-1.4-1.3c-0.1-0.9,0.2-1.5,0.9-2c0.8-0.5,1.7-0.5,2.5-0.5c0.6,0,1.2,0.1,1.7,0.3c0.3,0.1,0.4,0.2,0.2,0.5
		c-0.2,0.3-0.3,0.7-0.5,1.1c-0.1,0.2-0.2,0.2-0.3,0.1c-0.6-0.3-1.2-0.4-1.8-0.3c-0.1,0-0.2,0-0.2,0c-0.1,0.1-0.3,0.1-0.3,0.2
		c0,0.2,0.1,0.2,0.3,0.2c0.5,0.1,0.9,0.2,1.4,0.2c0.2,0,0.4,0.1,0.6,0.1c0.7,0.2,1.1,0.7,1.2,1.4c0.1,0.7-0.2,1.3-0.8,1.7
		C123.3,47.6,122.5,47.7,121.6,47.7z"/>
	<path class="st1" d="M128,47.7c-0.9,0-1.7-0.1-2.5-0.4c-0.3-0.1-0.4-0.2-0.2-0.5c0.2-0.4,0.3-0.7,0.5-1.1c0.1-0.3,0.2-0.2,0.4-0.1
		c0.7,0.3,1.4,0.4,2.1,0.4c0.1,0,0.1,0,0.2,0c0.1,0,0.3-0.1,0.3-0.3c0-0.2-0.2-0.2-0.3-0.2c-0.6-0.1-1.1-0.2-1.7-0.3
		c-0.8-0.1-1.3-0.6-1.4-1.4c-0.2-0.8,0.2-1.5,0.9-1.9c0.8-0.5,1.7-0.5,2.5-0.5c0.6,0,1.2,0.1,1.8,0.3c0.3,0.1,0.3,0.2,0.2,0.5
		c-0.2,0.4-0.3,0.7-0.4,1.1c-0.1,0.2-0.2,0.3-0.4,0.1c-0.6-0.3-1.2-0.4-1.8-0.3c-0.2,0-0.5,0-0.5,0.3c0,0.2,0.3,0.2,0.4,0.3
		c0.5,0.1,1.1,0.1,1.6,0.3c0.7,0.2,1.2,0.6,1.4,1.3c0.2,0.8-0.2,1.5-0.9,1.9C129.5,47.6,128.7,47.7,128,47.7z"/>
	<path class="st1" d="M162.7,47.7c-1.3-0.1-2.6-0.5-3.2-1.9c-0.9-1.9,0.4-4,2.6-4.3c1.2-0.2,2.3,0,3.2,0.9c0.7,0.7,0.6,0.8-0.2,1.2
		c-0.2,0.1-0.3,0.1-0.5,0.2c-0.2,0.1-0.4,0.3-0.7,0.3c-0.3,0-0.3-0.3-0.5-0.5c-0.3-0.2-0.8-0.3-1.1-0.2c-0.4,0.2-0.6,0.6-0.6,1.2
		c0,0.5,0.3,0.9,0.8,1c0.4,0.1,0.9,0,1.1-0.5c0.2-0.3,0.3-0.3,0.5-0.1c0.4,0.2,0.8,0.4,1.3,0.6c0.3,0.1,0.3,0.3,0.1,0.5
		c-0.5,0.9-1.3,1.3-2.3,1.4C163.1,47.7,162.9,47.7,162.7,47.7z"/>
	<path class="st1" d="M201.1,45.7c0-0.5,0-1.1,0-1.6c0-0.3-0.1-0.4-0.4-0.4c-0.4,0.1-0.5-0.1-0.5-0.5c0-0.4,0-0.7,0-1.1
		c0-0.3,0.1-0.3,0.3-0.3c0.4,0.1,0.5-0.1,0.6-0.5c0.1-1.2,0.8-1.8,2-2c0.6-0.1,1.2-0.1,1.8,0.1c0.3,0.1,0.3,0.2,0.2,0.5
		c-0.2,0.4-0.3,0.7-0.4,1.1c-0.1,0.2-0.1,0.3-0.4,0.2c-0.3-0.1-0.7-0.1-0.8,0.3c-0.1,0.2-0.1,0.4,0.2,0.3c0,0,0,0,0,0
		c0.3,0,0.8-0.1,0.9,0.1c0.2,0.2,0.1,0.6,0.1,1c0,0.8,0,0.8-0.8,0.8c-0.4,0-0.5,0.1-0.4,0.4c0,1,0,2.1,0,3.1c0,0.3-0.1,0.4-0.4,0.4
		c-0.6,0-1.3,0-1.9,0c-0.2,0-0.3-0.1-0.3-0.3C201.2,46.8,201.1,46.2,201.1,45.7z"/>
	<path class="st1" d="M197.4,40.2c0.3,0.1,0.9-0.2,1.1,0.1c0.2,0.2,0.1,0.8,0.1,1.2c0,0.4,0.1,0.5,0.5,0.5c0.8,0,0.8,0,0.8,0.8
		c0,0.3,0.1,0.8-0.1,1c-0.2,0.2-0.6,0.1-0.9,0.1c-0.2,0-0.3,0.1-0.3,0.3c0,0.4,0,0.8,0,1.2c0,0.5,0.3,0.7,0.8,0.6
		c0.3-0.1,0.4,0,0.4,0.2c0.1,0.4,0.2,0.8,0.4,1.2c0.1,0.2,0,0.3-0.2,0.4c-0.8,0.3-1.7,0.3-2.5,0c-0.9-0.3-1.4-1.1-1.4-2.1
		c0-0.4,0-0.9,0-1.3c0-0.3-0.1-0.4-0.4-0.3c-0.4,0.1-0.5-0.1-0.5-0.5c0-0.3,0-0.7,0-1c0-0.3,0.1-0.4,0.4-0.4
		c0.4,0.1,0.5-0.1,0.5-0.5c0-0.3,0-0.7,0-1c0-0.2,0.1-0.2,0.2-0.2C196.6,40.2,197,40.2,197.4,40.2z"/>
	<path class="st3" d="M187.6,43.5c0,1.2,0,2.5,0,3.7c0,0.3-0.1,0.4-0.3,0.4c-0.6,0-1.2,0-1.9,0c-0.2,0-0.3-0.1-0.3-0.3
		c0-2.5,0-5.1,0-7.6c0-0.3,0.1-0.3,0.3-0.3c0.6,0,1.2,0,1.9,0c0.3,0,0.3,0.1,0.3,0.3C187.6,41,187.6,42.2,187.6,43.5z"/>
	<path class="st1" d="M104.4,42.1c0.5-0.5,1.1-0.7,1.6-0.7c0.3,0,0.4,0,0.4,0.3c0,0.5,0,1.1,0,1.6c0,0.3-0.1,0.3-0.3,0.3
		c-0.1,0-0.1,0-0.2,0c-0.8,0-1.4,0.4-1.4,1.3c0,0.8,0,1.6,0,2.4c0,0.3-0.1,0.3-0.3,0.3c-0.6,0-1.2,0-1.9,0c-0.3,0-0.3,0-0.3-0.3
		c0-1.8,0-3.6,0-5.5c0-0.2,0.1-0.3,0.3-0.3c0.5,0,1.1,0,1.6,0C104.3,41.5,104.6,41.5,104.4,42.1z"/>
	<path class="st4" d="M141.9,42.1c0.6-0.5,1.1-0.7,1.7-0.7c0.2,0,0.3,0,0.3,0.3c0,0.6,0,1.1,0,1.7c0,0.2,0,0.3-0.3,0.3
		c-1.2-0.1-1.6,0.3-1.6,1.5c0,0.7,0,1.5,0,2.2c0,0.2-0.1,0.3-0.3,0.3c-0.7,0-1.3,0-2,0c-0.3,0-0.3-0.1-0.3-0.3c0-1.8,0-3.6,0-5.5
		c0-0.2,0.1-0.3,0.3-0.3c0.5,0,1.1,0,1.6,0C141.8,41.5,142.1,41.6,141.9,42.1z"/>
	<path class="st1" d="M215.4,42.1c0.5-0.5,1.1-0.7,1.7-0.7c0.2,0,0.3,0,0.3,0.2c0,0.6,0,1.2,0,1.8c0,0.2-0.1,0.2-0.3,0.2
		c-0.3-0.1-0.5,0-0.8,0c-0.5,0.1-0.7,0.4-0.8,0.8c-0.1,0.9-0.1,1.8-0.1,2.7c0,0.4-0.1,0.4-0.4,0.4c-0.6,0-1.2,0-1.7,0
		c-0.2,0-0.3,0-0.3-0.3c0-1.8,0-3.6,0-5.5c0-0.3,0.1-0.3,0.3-0.3c0.5,0,1,0,1.5,0C215.3,41.5,215.6,41.5,215.4,42.1z"/>
	<path class="st2" d="M159.5,18.7c0,7-5.1,13.1-12,14.2c-0.4,0.1-0.9,0.3-1.1,0.1c-0.3-0.2-0.1-0.7-0.1-1.1c0-0.3,0-0.6,0-0.9
		c0-0.3,0.1-0.4,0.4-0.4c5.2-0.8,9.3-4.5,10.2-9.7c0.7-3.8-0.2-7.2-2.8-10.2c-2-2.3-4.5-3.6-7.5-4c-0.2,0-0.3-0.1-0.3-0.4
		c0-0.6,0-1.2,0-1.7c0-0.3,0.1-0.3,0.3-0.3c1.5,0.2,2.9,0.5,4.2,1.1c4.2,1.9,6.9,5.1,8.1,9.5C159.3,16.2,159.5,17.4,159.5,18.7z"/>
	<path class="st2" d="M130.6,18.7c0-6.6,4.5-12.5,10.9-14.1c0.7-0.2,1.3-0.3,2-0.4c0.2,0,0.3,0,0.3,0.3c0,0.6,0,1.2,0,1.8
		c0,0.2-0.1,0.3-0.3,0.3c-5.1,0.6-9.5,4.7-10.3,9.7c-0.8,5,0.8,9.1,4.9,12.1c1.6,1.2,3.4,1.8,5.3,2.1c0.3,0,0.4,0.1,0.4,0.5
		c0,0.6,0,1.1,0,1.7c0,0.2,0,0.3-0.3,0.3c-3.6-0.4-6.6-1.9-9-4.5c-2-2.2-3.3-4.7-3.7-7.6C130.7,20.2,130.6,19.3,130.6,18.7z"/>
	<path class="st0" d="M153.3,17.5c-0.4,0-0.8,0.1-1.1,0c-0.3-0.2-0.2-0.7-0.3-1c-1-3.2-4.1-5.2-7.4-5c-3.4,0.3-5.8,2.8-6.4,5.5
		c-0.1,0.4-0.2,0.5-0.6,0.5c-0.5,0-1.1,0-1.6,0c-0.3,0-0.3-0.1-0.3-0.3c0.5-3,2.1-5.3,4.7-6.8c5.4-3.1,12.2-0.3,14,5.7
		c0.1,0.4,0.2,0.8,0.3,1.2c0.1,0.2,0,0.3-0.2,0.3C154,17.5,153.7,17.5,153.3,17.5C153.3,17.5,153.3,17.5,153.3,17.5z"/>
	<path class="st0" d="M145.2,28.3c-4.7,0-8.7-3.3-9.6-7.8c0-0.1,0-0.1,0-0.2c-0.1-0.4,0-0.5,0.4-0.4c0.5,0,1.1,0,1.6,0
		c0.3,0,0.4,0.1,0.5,0.4c0.6,2.5,2.1,4.2,4.5,5.2c4,1.5,8.5-0.8,9.5-5c0.1-0.4,0.3-0.5,0.7-0.5c0.5,0,1.1,0,1.6,0
		c0.3,0,0.3,0.1,0.3,0.3c-0.5,3.7-3.7,7.1-7.4,7.9C146.4,28.2,145.7,28.3,145.2,28.3z"/>
	<path class="st0" d="M140.3,18.6c0-2.6,2.2-4.8,4.7-4.8c2.7,0,4.9,2.1,4.9,4.8c0,2.7-2.2,4.8-4.9,4.8
		C142.3,23.5,140.3,21.3,140.3,18.6z"/>
	<path class="st1" d="M142.7,18.6c0-1.3,1.1-2.4,2.4-2.4c1.4,0,2.4,1.1,2.4,2.5c0,1.3-1.1,2.4-2.5,2.3
		C143.7,21.1,142.6,20,142.7,18.6z"/>
</g>
</svg>
