<?xml version="1.0" encoding="utf-8"?>
<!-- Generator: Adobe Illustrator 24.3.0, SVG Export Plug-In . SVG Version: 6.00 Build 0)  -->
<svg version="1.1" id="Layer_1" xmlns="http://www.w3.org/2000/svg" xmlns:xlink="http://www.w3.org/1999/xlink" x="0px" y="0px"
	 viewBox="0 0 300 50" style="enable-background:new 0 0 300 50;" xml:space="preserve">
<style type="text/css">
	.st0{fill:#1173BA;}
	.st1{fill:#303030;}
	.st2{fill:#1173BB;}
	.st3{fill:none;stroke:#303030;stroke-miterlimit:10;}
	.st4{font-family:'Poppins-SemiBold';}
	.st5{font-size:18.8344px;}
</style>
<path class="st0" d="M116.3,5.6c5.5,0,10.9,0,16.4,0c0.4,0,0.5,0.1,0.5,0.5c0,2.9,0,5.7,0,8.6c0,0.4-0.1,0.5-0.5,0.5
	c-3.3,0-6.5,0-9.8,0c-0.4,0-0.5,0.1-0.5,0.5c0,8.7,0,17.4,0,26.1c0,0.4-0.1,0.5-0.5,0.5c-3.8,0-7.6,0-11.4,0c-0.4,0-0.5-0.1-0.5-0.5
	c0-8.7,0-17.4,0-26c0-0.4-0.1-0.5-0.5-0.5c-3.3,0-6.5,0-9.8,0c-0.3,0-0.5-0.1-0.5-0.4c0-2.9,0-5.9,0-8.8c0-0.3,0.1-0.4,0.4-0.4
	C105.4,5.6,110.9,5.6,116.3,5.6z"/>
<path class="st1" d="M99.5,24.1c0,9.6-7.6,18-18.1,18.1c-10.2,0-18.1-8.1-18.1-18c0-10.1,8.1-17.9,17.5-18.2
	C91,5.6,99.5,13.9,99.5,24.1z"/>
<path class="st1" d="M43.2,42.2c-0.2,0-0.4,0-0.5,0c-4.1,0-8.2,0-12.4,0c-0.3,0-0.5-0.1-0.7-0.4c-1.1-1.7-2.2-3.5-3.3-5.2
	c-0.1-0.1-0.2-0.3-0.3-0.4c-0.7,0.9-1.3,1.8-2,2.7c-0.7,1-1.4,2-2.2,3c-0.1,0.2-0.3,0.3-0.5,0.3c-4,0-8,0-12,0c-0.1,0-0.1,0-0.3,0
	c0.4-0.5,0.7-1,1.1-1.4c3.1-4.1,6.2-8.1,9.3-12.2c0.2-0.3,0.2-0.4,0-0.7c-3.3-4.5-6.5-8.9-9.7-13.4c-0.1-0.1-0.2-0.3-0.3-0.4
	C9.6,14,9.7,14,9.8,14c4.1,0,8.2,0,12.2,0c0.3,0,0.5,0.1,0.7,0.4c1.2,1.9,2.5,3.7,3.8,5.6c0.8-1.1,1.5-2.2,2.3-3.2
	c0.6-0.8,1.2-1.6,1.7-2.5c0.1-0.2,0.2-0.3,0.5-0.3c3.9,0,7.8,0,11.6,0c0.1,0,0.1,0,0.3,0c-0.7,1-1.5,1.9-2.2,2.9
	c-2.7,3.5-5.3,7-8,10.5c-0.2,0.2-0.1,0.3,0,0.5c2.9,4,5.9,8,8.8,12C42.1,40.7,42.6,41.4,43.2,42.2z"/>
<path class="st1" d="M152.1,33.8c1,0,2,0,2.9,0c2.9,0,5.9,0,8.8,0c0.3,0,0.5,0.1,0.5,0.4c0,2.6,0,5.1,0,7.7c0,0.3-0.1,0.4-0.4,0.4
	c-8.7,0-17.4,0-26.1,0c-0.3,0-0.4-0.1-0.4-0.4c0-2,0-4,0-6c0-0.3,0.1-0.5,0.3-0.7c3.8-4.2,7.5-8.3,11.3-12.5
	c-0.1-0.1-0.3-0.1-0.4-0.1c-3.4,0-6.8,0-10.2,0c-0.4,0-0.5-0.1-0.5-0.5c0-2.5,0-5.1,0-7.6c0-0.3,0.1-0.4,0.4-0.4
	c8.4,0,16.7,0,25.1,0c0.3,0,0.4,0,0.4,0.4c0,2,0,3.9,0,5.9c0,0.3-0.1,0.4-0.3,0.6c-3.7,4.2-7.5,8.3-11.2,12.5
	C152.2,33.6,152.2,33.6,152.1,33.8z"/>
<path class="st2" d="M59.8,24.3c0,5.9,0,11.9,0,17.8c0,0.4-0.1,0.5-0.5,0.5c-3.8,0-7.6,0-11.4,0c-0.4,0-0.4-0.1-0.4-0.4
	c0-11.9,0-23.9,0-35.8C47.5,6,47.6,6,47.9,6c3.8,0,7.6,0,11.5,0c0.4,0,0.5,0.1,0.5,0.5C59.8,12.4,59.8,18.3,59.8,24.3z"/>
<path class="st2" d="M95.9,24.2c0,7-5.1,13.1-12,14.2c-0.4,0.1-0.9,0.3-1.1,0.1c-0.3-0.2-0.1-0.7-0.1-1.1c0-0.3,0-0.6,0-0.9
	s0.1-0.4,0.4-0.4c5.2-0.8,9.3-4.5,10.2-9.7c0.7-3.8-0.2-7.2-2.8-10.2c-2-2.3-4.5-3.6-7.5-4c-0.2,0-0.3-0.1-0.3-0.4
	c0-0.6,0-1.2,0-1.7c0-0.3,0.1-0.3,0.3-0.3c1.5,0.2,2.9,0.5,4.2,1.1c4.2,1.9,6.9,5.1,8.1,9.5C95.7,21.7,95.9,22.9,95.9,24.2z"/>
<path class="st2" d="M67,24.2c0-6.6,4.5-12.5,10.9-14.1c0.7-0.2,1.3-0.3,2-0.4c0.2,0,0.3,0,0.3,0.3c0,0.6,0,1.2,0,1.8
	c0,0.2-0.1,0.3-0.3,0.3c-5.1,0.6-9.5,4.7-10.3,9.7s0.8,9.1,4.9,12.1c1.6,1.2,3.4,1.8,5.3,2.1c0.3,0,0.4,0.1,0.4,0.5
	c0,0.6,0,1.1,0,1.7c0,0.2,0,0.3-0.3,0.3c-3.6-0.4-6.6-1.9-9-4.5c-2-2.2-3.3-4.7-3.7-7.6C67.1,25.7,67,24.8,67,24.2z"/>
<path class="st0" d="M89.7,23c-0.4,0-0.8,0.1-1.1,0c-0.3-0.2-0.2-0.7-0.3-1c-1-3.2-4.1-5.2-7.4-5c-3.4,0.3-5.8,2.8-6.4,5.5
	c-0.1,0.4-0.2,0.5-0.6,0.5c-0.5,0-1.1,0-1.6,0C72,23,72,22.9,72,22.7c0.5-3,2.1-5.3,4.7-6.8c5.4-3.1,12.2-0.3,14,5.7
	c0.1,0.4,0.2,0.8,0.3,1.2c0.1,0.2,0,0.3-0.2,0.3C90.4,23,90.1,23,89.7,23L89.7,23z"/>
<path class="st0" d="M81.6,33.8c-4.7,0-8.7-3.3-9.6-7.8c0-0.1,0-0.1,0-0.2c-0.1-0.4,0-0.5,0.4-0.4c0.5,0,1.1,0,1.6,0
	c0.3,0,0.4,0.1,0.5,0.4c0.6,2.5,2.1,4.2,4.5,5.2c4,1.5,8.5-0.8,9.5-5c0.1-0.4,0.3-0.5,0.7-0.5c0.5,0,1.1,0,1.6,0
	c0.3,0,0.3,0.1,0.3,0.3c-0.5,3.7-3.7,7.1-7.4,7.9C82.8,33.7,82.1,33.8,81.6,33.8z"/>
<path class="st0" d="M76.7,24.1c0-2.6,2.2-4.8,4.7-4.8c2.7,0,4.9,2.1,4.9,4.8s-2.2,4.8-4.9,4.8C78.7,29,76.7,26.8,76.7,24.1z"/>
<path class="st1" d="M79.1,24.1c0-1.3,1.1-2.4,2.4-2.4c1.4,0,2.4,1.1,2.4,2.5c0,1.3-1.1,2.4-2.5,2.3C80.1,26.6,79,25.5,79.1,24.1z"
	/>
<line class="st3" x1="173.3" y1="0" x2="173.3" y2="50"/>
<text transform="matrix(1 0 0 1 181.5188 21.6559)"><tspan x="0" y="0" class="st4 st5">Edge Cloud </tspan><tspan x="0" y="22.6" class="st4 st5">Platform</tspan></text>
</svg>
