<?xml version="1.0" encoding="utf-8"?>
<!-- Generator: Adobe Illustrator 24.3.0, SVG Export Plug-In . SVG Version: 6.00 Build 0)  -->
<svg version="1.1" id="Layer_1" xmlns="http://www.w3.org/2000/svg" xmlns:xlink="http://www.w3.org/1999/xlink" x="0px" y="0px"
	 viewBox="0 0 161.4 50" style="enable-background:new 0 0 161.4 50;" xml:space="preserve">
<style type="text/css">
	.st0{fill:#1173BA;}
	.st1{fill:#303030;}
	.st2{fill:#1173BB;}
	.st3{fill:#313130;}
	.st4{fill:#313030;}
</style>
<g>
	<path class="st0" d="M110.4,0.1c5.5,0,10.9,0,16.4,0c0.4,0,0.5,0.1,0.5,0.5c0,2.9,0,5.7,0,8.6c0,0.4-0.1,0.5-0.5,0.5
		c-3.3,0-6.5,0-9.8,0c-0.4,0-0.5,0.1-0.5,0.5c0,8.7,0,17.4,0,26.1c0,0.4-0.1,0.5-0.5,0.5c-3.8,0-7.6,0-11.4,0
		c-0.4,0-0.5-0.1-0.5-0.5c0-8.7,0-17.4,0-26c0-0.4-0.1-0.5-0.5-0.5c-3.3,0-6.5,0-9.8,0c-0.3,0-0.5-0.1-0.5-0.4c0-2.9,0-5.9,0-8.8
		c0-0.3,0.1-0.4,0.4-0.4C99.5,0.1,105,0.1,110.4,0.1z"/>
	<path class="st1" d="M93.6,18.6c0,9.6-7.6,18-18.1,18.1c-10.2,0-18.1-8.1-18.1-18c0-10.1,8.1-17.9,17.5-18.2
		C85.1,0.1,93.6,8.4,93.6,18.6z"/>
	<path class="st1" d="M37.3,36.7c-0.2,0-0.4,0-0.5,0c-4.1,0-8.2,0-12.4,0c-0.3,0-0.5-0.1-0.7-0.4c-1.1-1.7-2.2-3.5-3.3-5.2
		c-0.1-0.1-0.2-0.3-0.3-0.4c-0.7,0.9-1.3,1.8-2,2.7c-0.7,1-1.4,2-2.2,3c-0.1,0.2-0.3,0.3-0.5,0.3c-4,0-8,0-12,0c-0.1,0-0.1,0-0.3,0
		c0.4-0.5,0.7-1,1.1-1.4c3.1-4.1,6.2-8.1,9.3-12.2c0.2-0.3,0.2-0.4,0-0.7C10.2,17.9,7,13.5,3.8,9C3.7,8.9,3.6,8.7,3.5,8.6
		c0.2-0.1,0.3-0.1,0.4-0.1c4.1,0,8.2,0,12.2,0c0.3,0,0.5,0.1,0.7,0.4c1.2,1.9,2.5,3.7,3.8,5.6c0.8-1.1,1.5-2.2,2.3-3.2
		c0.6-0.8,1.2-1.6,1.7-2.5c0.1-0.2,0.2-0.3,0.5-0.3c3.9,0,7.8,0,11.6,0c0.1,0,0.1,0,0.3,0c-0.7,1-1.5,1.9-2.2,2.9
		c-2.7,3.5-5.3,7-8,10.5c-0.2,0.2-0.1,0.3,0,0.5c2.9,4,5.9,8,8.8,12C36.2,35.2,36.7,35.9,37.3,36.7z"/>
	<path class="st1" d="M146.2,28.3c1,0,2,0,2.9,0c2.9,0,5.9,0,8.8,0c0.3,0,0.5,0.1,0.5,0.4c0,2.6,0,5.1,0,7.7c0,0.3-0.1,0.4-0.4,0.4
		c-8.7,0-17.4,0-26.1,0c-0.3,0-0.4-0.1-0.4-0.4c0-2,0-4,0-6c0-0.3,0.1-0.5,0.3-0.7c3.8-4.2,7.5-8.3,11.3-12.5
		c-0.1-0.1-0.3-0.1-0.4-0.1c-3.4,0-6.8,0-10.2,0c-0.4,0-0.5-0.1-0.5-0.5c0-2.5,0-5.1,0-7.6c0-0.3,0.1-0.4,0.4-0.4
		c8.4,0,16.7,0,25.1,0c0.3,0,0.4,0,0.4,0.4c0,2,0,3.9,0,5.9c0,0.3-0.1,0.4-0.3,0.6c-3.7,4.2-7.5,8.3-11.2,12.5
		C146.3,28.1,146.3,28.1,146.2,28.3z"/>
	<path class="st2" d="M53.9,18.8c0,5.9,0,11.9,0,17.8c0,0.4-0.1,0.5-0.5,0.5c-3.8,0-7.6,0-11.4,0c-0.4,0-0.4-0.1-0.4-0.4
		c0-11.9,0-23.9,0-35.8c0-0.4,0.1-0.4,0.4-0.4c3.8,0,7.6,0,11.5,0C53.9,0.5,54,0.6,54,1C53.9,6.9,53.9,12.8,53.9,18.8z"/>
	<path class="st1" d="M151,42c1.3-1,2.9-0.7,3.6,0.3c0.7-0.7,1.5-1,2.5-0.8c1.1,0.2,1.9,1,1.9,2.5c0,1.1,0,2.3,0,3.4
		c0,0.2,0,0.3-0.2,0.3c-0.7,0-1.4,0-2.1,0c-0.2,0-0.2-0.1-0.2-0.3c0-0.9,0-1.8,0-2.7c0-0.2,0-0.4-0.1-0.5c-0.1-0.3-0.3-0.5-0.6-0.5
		s-0.5,0.1-0.6,0.4c-0.1,0.2-0.1,0.5-0.1,0.8c0,0.9,0,1.7,0,2.6c0,0.2-0.1,0.3-0.3,0.3c-0.6,0-1.3,0-1.9,0c-0.3,0-0.3-0.1-0.3-0.3
		c0-1,0-2,0-2.9c0-0.3-0.1-0.7-0.5-0.7c-0.5-0.1-0.9,0.2-0.9,0.8c0,0.8,0,1.6,0,2.5c0,0.8,0,0.8-0.7,0.8c-0.5,0-1,0-1.5,0
		c-0.2,0-0.3,0-0.3-0.3c0-1.8,0-3.7,0-5.5c0-0.2,0.1-0.3,0.3-0.3c0.6,0,1.1,0,1.7,0C150.9,41.5,151.1,41.6,151,42z"/>
	<path class="st1" d="M24,42.7c-0.3-0.5-0.8-0.9-1.4-1.1c-0.9-0.3-1.7-0.3-2.5,0.3c0-0.8,0-1.5,0-2.2c0-0.2-0.1-0.3-0.3-0.3
		c-0.6,0-1.3,0-1.9,0c-0.3,0-0.3,0.1-0.3,0.3c0,2.5,0,5.1,0,7.6c0,0.3,0.1,0.3,0.3,0.3c0.6,0,1.1,0,1.7,0c0.3,0,0.5,0,0.4-0.4
		c1.2,0.9,2.9,0.5,3.6-0.2C24.6,45.9,24.8,44,24,42.7z M20.6,45.6c-0.5-0.2-0.7-0.9-0.5-1.5c0.1-0.5,0.6-0.7,1.1-0.7
		c0.5,0.1,0.8,0.5,0.8,1.1C21.9,45.5,21.3,46,20.6,45.6z"/>
	<path class="st1" d="M114.6,42c-0.3-1.3-1.5-2-3-2.1c-1.3-0.1-2.6,0-3.8,0c-0.3,0-0.4,0.1-0.3,0.4c0,1.2,0,2.3,0,3.5s0,2.4,0,3.6
		c0,0.2,0.1,0.3,0.3,0.3c0.7,0,1.4,0,2,0c0.3,0,0.3-0.1,0.3-0.3c0-0.4,0-0.9,0-1.3c0-0.2,0.1-0.3,0.3-0.3c0.5,0,1.1,0,1.6-0.1
		C113.9,45.5,115.1,43.8,114.6,42z M112,42.9c0,0.4-0.2,0.6-0.6,0.7c-0.1,0-0.2,0-0.3,0c-1.1,0.2-1.1,0.2-1.1-0.9c0-1,0-1,1.1-0.9
		C111.8,41.9,112.1,42.3,112,42.9z"/>
	<path class="st1" d="M49.4,47.4c-1.1-2.4-2.1-4.9-3.2-7.3c-0.1-0.2-0.2-0.2-0.4-0.2c-0.7,0-1.4,0-2,0c-0.2,0-0.3,0.1-0.4,0.3
		c-0.5,1.1-0.9,2.1-1.4,3.2c-0.6,1.4-1.2,2.8-1.9,4.3c0.5,0,1,0,1.4,0s0.9,0.1,1.2-0.1c0.3-0.2,0.3-0.7,0.5-1.1
		c0.1-0.2,0.2-0.3,0.4-0.2c0.5,0,1,0,1.5,0c0.4,0,0.8-0.1,1.1,0.1c0.3,0.2,0.3,0.6,0.4,1c0,0.1,0.1,0.1,0.1,0.2
		c0,0.1,0.1,0.2,0.2,0.2c0.8,0,1.7,0,2.5,0C49.5,47.5,49.5,47.5,49.4,47.4z M44.1,44.3c0.2-0.6,0.5-1.2,0.7-1.9
		c0.3,0.7,0.5,1.3,0.7,1.9H44.1z"/>
	<path class="st1" d="M6.2,39.7c1.3,0,2.4,0.3,3.3,1.3c0.2,0.2,0.2,0.3,0,0.5c-0.4,0.3-0.8,0.7-1.2,1c-0.2,0.2-0.3,0.2-0.5,0
		c-0.6-0.6-1.3-0.8-2.1-0.6c-0.2,0.1-0.4,0.2-0.5,0.3c-0.8,0.7-0.9,2.1-0.2,2.9c0.7,0.8,1.9,0.8,2.7,0c0.3-0.3,0.5-0.3,0.7,0
		c0.3,0.3,0.7,0.6,1.1,0.9c0.2,0.2,0.2,0.3,0,0.5c-0.7,0.8-1.6,1.2-2.7,1.3c-1.2,0.1-2.4-0.1-3.4-0.8c-1.3-1-1.8-2.4-1.5-3.9
		c0.2-1.5,1.2-2.5,2.6-3.1C5.1,39.7,5.7,39.6,6.2,39.7z"/>
	<path class="st1" d="M13.5,44.8c0.4-1,0.8-2,1.1-2.9c0.1-0.2,0.2-0.3,0.5-0.3c0.6,0,1.2,0,1.8,0c0.2,0,0.3,0,0.2,0.3
		c-0.8,2.1-1.7,4.2-2.5,6.2c-0.9,2.1-3,2.2-4.4,1.5c-0.2-0.1-0.3-0.2-0.2-0.5c0.2-0.4,0.4-0.8,0.6-1.2c0.1-0.2,0.2-0.2,0.4-0.1
		c0.1,0.1,0.3,0.1,0.5,0.2c0.3,0,0.5,0,0.7-0.2c0.1-0.2-0.1-0.4-0.1-0.5c-0.7-1.8-1.5-3.5-2.2-5.3c-0.1-0.3-0.1-0.4,0.2-0.4
		c0.6,0,1.3,0,1.9,0c0.2,0,0.3,0.1,0.4,0.3C12.7,42.8,13.1,43.7,13.5,44.8z"/>
	<path class="st1" d="M84.5,42.1c0.8-0.6,1.6-0.8,2.4-0.6c1.1,0.2,1.9,1.1,1.9,2.3s0,2.4,0,3.5c0,0.2-0.1,0.3-0.3,0.3
		c-0.6,0-1.3,0-1.9,0c-0.3,0-0.3-0.1-0.3-0.4c0-0.9,0-1.8,0-2.7c0-0.7-0.2-1-0.7-1s-0.9,0.4-0.9,1c0,0.9,0,1.8,0,2.7
		c0,0.3-0.1,0.4-0.4,0.4c-0.6,0-1.2,0-1.9,0c-0.2,0-0.3-0.1-0.3-0.3c0-1.8,0-3.6,0-5.5c0-0.3,0.1-0.3,0.3-0.3c0.5,0,1,0,1.5,0
		C84.3,41.5,84.7,41.5,84.5,42.1z"/>
	<path class="st1" d="M66.5,47.1c-0.9,0.7-1.9,0.8-3,0.3c-0.8-0.4-1.1-1-1.2-1.8c-0.1-1.3,0-2.5-0.1-3.8c0-0.2,0.1-0.3,0.3-0.3
		c0.7,0,1.3,0,2,0c0.3,0,0.3,0.1,0.3,0.3c0,0.8,0,1.6,0,2.5c0,0.2,0,0.4,0.1,0.6c0.1,0.4,0.2,0.6,0.6,0.6c0.4,0,0.7-0.2,0.8-0.5
		c0.1-0.2,0.1-0.4,0.1-0.6c0-0.8,0-1.7,0-2.5c0-0.3,0-0.4,0.4-0.4c0.6,0,1.2,0,1.9,0c0.2,0,0.3,0.1,0.3,0.3c0,1.8,0,3.7,0,5.5
		c0,0.2-0.1,0.3-0.3,0.3c-0.5,0-1.1,0-1.6,0C66.6,47.6,66.6,47.6,66.5,47.1z"/>
	<path class="st1" d="M141.5,42.1c-0.9-0.6-1.9-0.8-3-0.6c-2.1,0.3-3.3,2.3-2.6,4.2c0.4,1.2,1.8,2,3.3,2c0.4,0,0.7,0,1.1-0.1
		c1.2-0.3,2.1-1.1,2.4-2.4C143,43.9,142.6,42.8,141.5,42.1z M139.7,45.6c-0.3,0.2-0.7,0.2-1,0c-0.4-0.2-0.5-0.7-0.5-1.1
		c0-0.7,0.3-1.1,0.9-1.1c0.6,0,1,0.3,1,1C140.2,44.9,140.2,45.3,139.7,45.6z"/>
	<path class="st1" d="M125.2,43.9c-0.1-1.1-0.6-1.9-1.7-2.2c-1.3-0.4-2.5-0.3-3.7,0.2c-0.6,0.2-0.6,0.2-0.3,0.8
		c0.1,0.1,0.1,0.3,0.2,0.4c0.1,0.2,0.2,0.5,0.4,0.7c0.1,0.1,0.4-0.2,0.6-0.3c0.6-0.2,1.2-0.3,1.8,0.1c0.1,0.1,0.3,0.2,0.2,0.4
		s-0.2,0.1-0.3,0.1c-0.7,0-1.4,0-2.1,0.2c-0.7,0.2-1.1,0.6-1.2,1.4c-0.1,0.7,0.1,1.3,0.7,1.7c0.9,0.7,2.4,0.6,3.3-0.3
		c0,0.1,0,0.2,0,0.2c-0.1,0.3,0.1,0.5,0.4,0.4c0.6,0,1.1,0,1.7,0c0.2,0,0.3-0.1,0.3-0.3C125.2,46.2,125.3,45,125.2,43.9z
		 M122.3,46.1c-0.1,0.1-0.2,0.1-0.4,0.1c-0.3,0-0.5-0.1-0.6-0.4c0-0.3,0.2-0.5,0.5-0.5c0.1,0,0.2,0,0.3,0c0.2,0,0.5-0.1,0.5,0.1
		C122.8,45.7,122.6,45.9,122.3,46.1z"/>
	<path class="st1" d="M81.1,44.1c0-1-0.4-1.9-1.4-2.4c-1.5-0.6-3-0.4-4.4,0.2c-0.2,0.1-0.2,0.2-0.1,0.3c0.2,0.5,0.5,1,0.7,1.5
		c0.6-0.4,1.3-0.6,2-0.4c0.4,0.1,0.6,0.2,0.7,0.7c-0.4,0-0.7,0-1,0c-0.5,0-1,0-1.4,0.2c-0.8,0.3-1.2,0.8-1.3,1.5
		c0,0.8,0.4,1.5,1.1,1.8c1,0.4,2.1,0.2,2.8-0.5c0,0.1,0,0.1,0,0.2c-0.1,0.4,0.1,0.5,0.5,0.5c0.5,0,1.1,0,1.6,0c0.2,0,0.3,0,0.3-0.3
		C81.1,46.3,81.1,45.2,81.1,44.1z M78.1,46.1c-0.1,0.1-0.2,0.1-0.4,0.1c-0.3,0-0.5-0.1-0.6-0.4c0-0.3,0.2-0.4,0.5-0.5
		c0.1,0,0.2,0,0.3,0c0.2,0,0.5-0.1,0.5,0.2C78.6,45.7,78.4,45.9,78.1,46.1z"/>
	<path class="st1" d="M102.2,42.2c-1.1-0.9-2.8-1-4.2-0.3c-2,1.1-2.1,3.9-0.2,5.2c0.7,0.5,1.6,0.6,2.4,0.6c0.9,0,1.7-0.2,2.3-0.7
		c0.2-0.2,0.3-0.3,0-0.5c-0.2-0.2-0.4-0.4-0.6-0.6c-0.3-0.4-0.6-0.5-1.1-0.2s-1.2,0.3-1.7-0.2c-0.1-0.1-0.2-0.2-0.2-0.3
		c0-0.2,0.2-0.1,0.3-0.1c0.6,0,1.2,0,1.7,0c0.6,0,1.2,0,1.8,0c0.1,0,0.3,0,0.3-0.2C103.3,43.9,103.1,42.9,102.2,42.2z M99.2,43.9
		c-0.2,0-0.2-0.1-0.1-0.2c0.1-0.4,0.5-0.6,1-0.5c0.5,0,0.7,0.3,0.8,0.8C100.3,43.9,99.7,43.9,99.2,43.9z"/>
	<path class="st1" d="M30.9,42.4c-1-1-2.7-1.3-4.1-0.7c-1.9,0.8-2.5,3.2-1.2,4.7c0.9,1,2.1,1.3,3.3,1.2c0.7,0,1.4-0.2,2-0.7
		c0.2-0.2,0.3-0.3,0.1-0.6c-0.3-0.2-0.6-0.5-0.8-0.8c-0.2-0.2-0.3-0.2-0.5-0.1c-0.6,0.4-1.9,0.4-2.1-0.4h0.5c1.1,0,2.3,0,3.4,0
		c0.1,0,0.3,0.1,0.3-0.2C31.8,44,31.6,43.1,30.9,42.4z M27.5,43.9c0.1-0.6,0.4-0.8,1-0.8c0.5,0,0.8,0.3,0.9,0.8H27.5z"/>
	<path class="st1" d="M52.1,47.7c-0.8,0-1.6-0.1-2.4-0.4c-0.2-0.1-0.4-0.2-0.2-0.5v-0.1c0.2-0.4,0.2-0.9,0.5-1.1
		c0.3-0.2,0.7,0.2,1.1,0.3S52,46,52.5,46c0.2,0,0.4,0,0.4-0.2c0-0.3-0.2-0.2-0.4-0.3c-0.5-0.1-1.1-0.2-1.6-0.3
		c-0.8-0.2-1.3-0.6-1.4-1.3c-0.1-0.9,0.2-1.5,0.9-2c0.8-0.5,1.7-0.5,2.5-0.5c0.6,0,1.2,0.1,1.7,0.3c0.3,0.1,0.4,0.2,0.2,0.5
		c-0.2,0.3-0.3,0.7-0.5,1.1c-0.1,0.2-0.2,0.2-0.3,0.1c-0.6-0.3-1.2-0.4-1.8-0.3c-0.1,0-0.2,0-0.2,0c-0.1,0.1-0.3,0.1-0.3,0.2
		c0,0.2,0.1,0.2,0.3,0.2c0.5,0.1,0.9,0.2,1.4,0.2c0.2,0,0.4,0.1,0.6,0.1c0.7,0.2,1.1,0.7,1.2,1.4s-0.2,1.3-0.8,1.7
		C53.8,47.6,53,47.7,52.1,47.7z"/>
	<path class="st1" d="M58.5,47.7c-0.9,0-1.7-0.1-2.5-0.4c-0.3-0.1-0.4-0.2-0.2-0.5c0.2-0.4,0.3-0.7,0.5-1.1c0.1-0.3,0.2-0.2,0.4-0.1
		c0.7,0.3,1.4,0.4,2.1,0.4c0.1,0,0.1,0,0.2,0c0.1,0,0.3-0.1,0.3-0.3s-0.2-0.2-0.3-0.2c-0.6-0.1-1.1-0.2-1.7-0.3
		c-0.8-0.1-1.3-0.6-1.4-1.4c-0.2-0.8,0.2-1.5,0.9-1.9c0.8-0.5,1.7-0.5,2.5-0.5c0.6,0,1.2,0.1,1.8,0.3c0.3,0.1,0.3,0.2,0.2,0.5
		c-0.2,0.4-0.3,0.7-0.4,1.1c-0.1,0.2-0.2,0.3-0.4,0.1c-0.6-0.3-1.2-0.4-1.8-0.3c-0.2,0-0.5,0-0.5,0.3c0,0.2,0.3,0.2,0.4,0.3
		c0.5,0.1,1.1,0.1,1.6,0.3c0.7,0.2,1.2,0.6,1.4,1.3c0.2,0.8-0.2,1.5-0.9,1.9C60,47.6,59.2,47.7,58.5,47.7z"/>
	<path class="st1" d="M93.2,47.7c-1.3-0.1-2.6-0.5-3.2-1.9c-0.9-1.9,0.4-4,2.6-4.3c1.2-0.2,2.3,0,3.2,0.9c0.7,0.7,0.6,0.8-0.2,1.2
		c-0.2,0.1-0.3,0.1-0.5,0.2c-0.2,0.1-0.4,0.3-0.7,0.3s-0.3-0.3-0.5-0.5c-0.3-0.2-0.8-0.3-1.1-0.2c-0.4,0.2-0.6,0.6-0.6,1.2
		c0,0.5,0.3,0.9,0.8,1c0.4,0.1,0.9,0,1.1-0.5c0.2-0.3,0.3-0.3,0.5-0.1c0.4,0.2,0.8,0.4,1.3,0.6c0.3,0.1,0.3,0.3,0.1,0.5
		c-0.5,0.9-1.3,1.3-2.3,1.4C93.6,47.7,93.4,47.7,93.2,47.7z"/>
	<path class="st1" d="M131.6,45.7c0-0.5,0-1.1,0-1.6c0-0.3-0.1-0.4-0.4-0.4c-0.4,0.1-0.5-0.1-0.5-0.5s0-0.7,0-1.1
		c0-0.3,0.1-0.3,0.3-0.3c0.4,0.1,0.5-0.1,0.6-0.5c0.1-1.2,0.8-1.8,2-2c0.6-0.1,1.2-0.1,1.8,0.1c0.3,0.1,0.3,0.2,0.2,0.5
		c-0.2,0.4-0.3,0.7-0.4,1.1c-0.1,0.2-0.1,0.3-0.4,0.2c-0.3-0.1-0.7-0.1-0.8,0.3c-0.1,0.2-0.1,0.4,0.2,0.3l0,0c0.3,0,0.8-0.1,0.9,0.1
		c0.2,0.2,0.1,0.6,0.1,1c0,0.8,0,0.8-0.8,0.8c-0.4,0-0.5,0.1-0.4,0.4c0,1,0,2.1,0,3.1c0,0.3-0.1,0.4-0.4,0.4c-0.6,0-1.3,0-1.9,0
		c-0.2,0-0.3-0.1-0.3-0.3C131.7,46.8,131.6,46.2,131.6,45.7z"/>
	<path class="st1" d="M127.9,40.2c0.3,0.1,0.9-0.2,1.1,0.1c0.2,0.2,0.1,0.8,0.1,1.2s0.1,0.5,0.5,0.5c0.8,0,0.8,0,0.8,0.8
		c0,0.3,0.1,0.8-0.1,1c-0.2,0.2-0.6,0.1-0.9,0.1c-0.2,0-0.3,0.1-0.3,0.3c0,0.4,0,0.8,0,1.2c0,0.5,0.3,0.7,0.8,0.6
		c0.3-0.1,0.4,0,0.4,0.2c0.1,0.4,0.2,0.8,0.4,1.2c0.1,0.2,0,0.3-0.2,0.4c-0.8,0.3-1.7,0.3-2.5,0c-0.9-0.3-1.4-1.1-1.4-2.1
		c0-0.4,0-0.9,0-1.3c0-0.3-0.1-0.4-0.4-0.3c-0.4,0.1-0.5-0.1-0.5-0.5c0-0.3,0-0.7,0-1s0.1-0.4,0.4-0.4c0.4,0.1,0.5-0.1,0.5-0.5
		c0-0.3,0-0.7,0-1c0-0.2,0.1-0.2,0.2-0.2C127.1,40.2,127.5,40.2,127.9,40.2z"/>
	<path class="st3" d="M118.1,43.5c0,1.2,0,2.5,0,3.7c0,0.3-0.1,0.4-0.3,0.4c-0.6,0-1.2,0-1.9,0c-0.2,0-0.3-0.1-0.3-0.3
		c0-2.5,0-5.1,0-7.6c0-0.3,0.1-0.3,0.3-0.3c0.6,0,1.2,0,1.9,0c0.3,0,0.3,0.1,0.3,0.3C118.1,41,118.1,42.2,118.1,43.5z"/>
	<path class="st1" d="M34.9,42.1c0.5-0.5,1.1-0.7,1.6-0.7c0.3,0,0.4,0,0.4,0.3c0,0.5,0,1.1,0,1.6c0,0.3-0.1,0.3-0.3,0.3
		c-0.1,0-0.1,0-0.2,0c-0.8,0-1.4,0.4-1.4,1.3c0,0.8,0,1.6,0,2.4c0,0.3-0.1,0.3-0.3,0.3c-0.6,0-1.2,0-1.9,0c-0.3,0-0.3,0-0.3-0.3
		c0-1.8,0-3.6,0-5.5c0-0.2,0.1-0.3,0.3-0.3c0.5,0,1.1,0,1.6,0C34.8,41.5,35.1,41.5,34.9,42.1z"/>
	<path class="st4" d="M72.4,42.1c0.6-0.5,1.1-0.7,1.7-0.7c0.2,0,0.3,0,0.3,0.3c0,0.6,0,1.1,0,1.7c0,0.2,0,0.3-0.3,0.3
		c-1.2-0.1-1.6,0.3-1.6,1.5c0,0.7,0,1.5,0,2.2c0,0.2-0.1,0.3-0.3,0.3c-0.7,0-1.3,0-2,0c-0.3,0-0.3-0.1-0.3-0.3c0-1.8,0-3.6,0-5.5
		c0-0.2,0.1-0.3,0.3-0.3c0.5,0,1.1,0,1.6,0C72.3,41.5,72.6,41.6,72.4,42.1z"/>
	<path class="st1" d="M145.9,42.1c0.5-0.5,1.1-0.7,1.7-0.7c0.2,0,0.3,0,0.3,0.2c0,0.6,0,1.2,0,1.8c0,0.2-0.1,0.2-0.3,0.2
		c-0.3-0.1-0.5,0-0.8,0c-0.5,0.1-0.7,0.4-0.8,0.8c-0.1,0.9-0.1,1.8-0.1,2.7c0,0.4-0.1,0.4-0.4,0.4c-0.6,0-1.2,0-1.7,0
		c-0.2,0-0.3,0-0.3-0.3c0-1.8,0-3.6,0-5.5c0-0.3,0.1-0.3,0.3-0.3c0.5,0,1,0,1.5,0C145.8,41.5,146.1,41.5,145.9,42.1z"/>
	<path class="st2" d="M90,18.7c0,7-5.1,13.1-12,14.2c-0.4,0.1-0.9,0.3-1.1,0.1c-0.3-0.2-0.1-0.7-0.1-1.1c0-0.3,0-0.6,0-0.9
		s0.1-0.4,0.4-0.4c5.2-0.8,9.3-4.5,10.2-9.7c0.7-3.8-0.2-7.2-2.8-10.2c-2-2.3-4.5-3.6-7.5-4c-0.2,0-0.3-0.1-0.3-0.4
		c0-0.6,0-1.2,0-1.7c0-0.3,0.1-0.3,0.3-0.3c1.5,0.2,2.9,0.5,4.2,1.1c4.2,1.9,6.9,5.1,8.1,9.5C89.8,16.2,90,17.4,90,18.7z"/>
	<path class="st2" d="M61.1,18.7c0-6.6,4.5-12.5,10.9-14.1c0.7-0.2,1.3-0.3,2-0.4c0.2,0,0.3,0,0.3,0.3c0,0.6,0,1.2,0,1.8
		c0,0.2-0.1,0.3-0.3,0.3c-5.1,0.6-9.5,4.7-10.3,9.7s0.8,9.1,4.9,12.1c1.6,1.2,3.4,1.8,5.3,2.1c0.3,0,0.4,0.1,0.4,0.5
		c0,0.6,0,1.1,0,1.7c0,0.2,0,0.3-0.3,0.3c-3.6-0.4-6.6-1.9-9-4.5c-2-2.2-3.3-4.7-3.7-7.6C61.2,20.2,61.1,19.3,61.1,18.7z"/>
	<path class="st0" d="M83.8,17.5c-0.4,0-0.8,0.1-1.1,0c-0.3-0.2-0.2-0.7-0.3-1c-1-3.2-4.1-5.2-7.4-5c-3.4,0.3-5.8,2.8-6.4,5.5
		c-0.1,0.4-0.2,0.5-0.6,0.5c-0.5,0-1.1,0-1.6,0c-0.3,0-0.3-0.1-0.3-0.3c0.5-3,2.1-5.3,4.7-6.8c5.4-3.1,12.2-0.3,14,5.7
		c0.1,0.4,0.2,0.8,0.3,1.2c0.1,0.2,0,0.3-0.2,0.3C84.5,17.5,84.2,17.5,83.8,17.5L83.8,17.5z"/>
	<path class="st0" d="M75.7,28.3c-4.7,0-8.7-3.3-9.6-7.8c0-0.1,0-0.1,0-0.2c-0.1-0.4,0-0.5,0.4-0.4c0.5,0,1.1,0,1.6,0
		c0.3,0,0.4,0.1,0.5,0.4c0.6,2.5,2.1,4.2,4.5,5.2c4,1.5,8.5-0.8,9.5-5c0.1-0.4,0.3-0.5,0.7-0.5c0.5,0,1.1,0,1.6,0
		c0.3,0,0.3,0.1,0.3,0.3c-0.5,3.7-3.7,7.1-7.4,7.9C76.9,28.2,76.2,28.3,75.7,28.3z"/>
	<path class="st0" d="M70.8,18.6c0-2.6,2.2-4.8,4.7-4.8c2.7,0,4.9,2.1,4.9,4.8s-2.2,4.8-4.9,4.8C72.8,23.5,70.8,21.3,70.8,18.6z"/>
	<path class="st1" d="M73.2,18.6c0-1.3,1.1-2.4,2.4-2.4c1.4,0,2.4,1.1,2.4,2.5c0,1.3-1.1,2.4-2.5,2.3C74.2,21.1,73.1,20,73.2,18.6z"
		/>
</g>
</svg>
