<svg xmlns="http://www.w3.org/2000/svg" viewBox="0 0 1139.86 1304.57"><defs><style>.cls-1{fill:#58585a;}.cls-2{fill:#f16723;}</style></defs><g id="Layer_2" data-name="Layer 2"><g id="Layer_1-2" data-name="Layer 1"><path class="cls-1" d="M923.61,697.8c-.47,24.28.75,48.55-2.38,72.82-5.35,41.59-19.05,80-42.31,114.75Q809.79,988.5,686.71,1007.46c-10.37,1.59-20.9,2.89-31.48,1.56q0-30,0-60c27-2.26,53.63-6.61,78.49-18.13,66.91-31,108.41-82.43,123.72-154.76,2.53-11.93,3.28-24,4.1-36.14.33-5-1.25-7.75-5.59-10.35C791,690.84,726.29,651.78,661.36,613c-4.66-2.79-6.07-5.75-6.05-10.91q.23-102,0-203.94c0-6,1.37-7.68,7.56-7.67q126.78.35,253.55,0c6.39,0,7.37,1.93,7.36,7.69-.2,67.06,0,134.13-.3,201.19,0,6.3,1.78,7.43,7.64,7.4,52.82-.23,105.64-.15,158.46-.13,32,0,50.87,18.5,50.31,50.46Q1136.76,833,1023.6,967.84a480.29,480.29,0,0,1-103.82,91.87,40.76,40.76,0,0,0-3.68,3c-27.51,16.37-55.54,31.76-85.31,43.73-.66.19-1.34.32-2,.57a491.41,491.41,0,0,1-357-1.82A489.66,489.66,0,0,1,201,836.93c-23-55.73-34.63-113.77-36.39-173.85-1-32.86,2.1-65.46,7.87-97.82a472.34,472.34,0,0,1,38.32-120.11q54.5-114.94,157.82-189.38A476.71,476.71,0,0,1,514.29,184.5a489.21,489.21,0,0,1,112.09-19.06,503.49,503.49,0,0,1,128.6,10c25.9,5.31,50.9,13.66,75.77,22.46,10.38,4.73,20.8,9.38,31.14,14.21,13.63,6.37,21.2,17.45,24.8,31.79,2.59,10.3-.23,19.85-3,29.5l.05-.08c-1.32.23-1.42,1.33-1.67,2.32-15.51,23.23-38,28.86-64.9,16.36A375.89,375.89,0,0,0,666.2,256.36c-113.56-2.77-211.44,35.47-292.54,114.81-56.2,55-92.15,121.68-108.87,198.64a381.07,381.07,0,0,0-8,106.66c5.34,80.12,32.08,152.58,81.11,216.34s111.76,108.76,187.87,134.87c52.84,18.12,107.2,23.66,162.76,19.22a343,343,0,0,0,45.51-6.34A405.11,405.11,0,0,0,809.61,1016,393.35,393.35,0,0,0,953.37,909.7q62.65-73.22,84.88-167.1c3.14-13.43,5.33-27,7.45-40.6.54-3.52-.35-4.36-3.71-4.35q-59.25.23-118.5.26c0-21.81-.1-43.61.14-65.42,0-4.22-1.28-6.58-4.9-8.67-17.45-10.08-34.67-20.57-52.15-30.59-3.9-2.24-5.26-4.64-5.24-9.15.19-41.78,0-83.55.23-125.33,0-5-1.09-6.56-6.37-6.53q-69.56.33-139.1,0c-5.29,0-6.39,1.49-6.35,6.51q.33,52.68,0,105.36c0,4.82,1.68,7.28,5.6,9.62q73.76,44,147.38,88.18C882.94,674,903.31,685.83,923.61,697.8Z"/><path class="cls-2" d="M883.67,273.39c2.79-9.65,5.61-19.2,3-29.5-3.6-14.34-11.17-25.42-24.8-31.79-10.34-4.83-20.76-9.48-31.14-14.22a709.72,709.72,0,0,1,58.45-53.43C709.27,54.88,426.76,64.7,233.77,278.87c-189.92,210.77-191,531.88-.63,745.73,189.73,213.19,472,226.81,656.05,135.47-20.41-17-40.22-34.42-58.4-53.58,29.77-12,57.8-27.36,85.31-43.73,26.66,24.38,55.46,45.88,85.61,65.82,26.56,17.57,26,57.5-.77,74.77-44.74,28.91-92.66,51.29-143.23,68a654.16,654.16,0,0,1-314.64,24q-162-27.6-291.63-128.83A650,650,0,0,1,81.61,967.92,641.09,641.09,0,0,1,9.06,761.15,653.36,653.36,0,0,1,6.48,560.9,649.77,649.77,0,0,1,182.61,200.06,650.28,650.28,0,0,1,406.54,48,638.36,638.36,0,0,1,577.31,4.31a659.1,659.1,0,0,1,140.9-1A644.79,644.79,0,0,1,927.54,60.84a675.6,675.6,0,0,1,68.4,37c33.74,20.75,33.93,60.4.51,81.76a561.9,561.9,0,0,0-108.18,90.15C887,271.11,886.17,273.39,883.67,273.39Z"/><path class="cls-2" d="M655.21,949q0,30,0,60c-26.69,1.67-52.73-2.85-77.75-11.21-98-32.73-160.26-99.48-186.72-199.35-5.66-21.38-7.09-43.41-7.1-65.47q-.09-167.41-.17-334.82c0-6,1.4-7.66,7.55-7.64q89.57.38,179.12,0c6.24,0,8,1.48,8,7.89q-.31,166.38-.13,332.75c0,39.18,22.42,69.81,58.74,80.27,5.9,1.69,12.14,2.21,18.23,3.28l.24,60.57c-25.52.61-49-6.71-70.24-20.14-44-27.77-67.46-68-67.84-120.14-.68-91.63-.26-183.27-.07-274.9,0-6.14-1.32-8.11-7.77-7.95-19.05.46-38.13.31-57.18.06-4.85-.06-6.73.77-6.72,6.28.19,92.32-.26,184.65.25,277,.57,104.35,73,190.68,175.4,209.8C632.3,947.38,643.82,947.81,655.21,949Z"/><path class="cls-1" d="M655.25,875.3,655,814.73c.13-18.13.33-36.26.38-54.4.07-24.34.11-48.68,0-73,0-5.13.19-7.48,6-3.85,14.36,9,29,17.65,43.6,26.2,3.55,2.08,5.06,4.36,5.05,8.64q-.26,70.28,0,140.54c0,4.43-1.23,6.16-5.73,7.33-13.05,3.39-25.92,7.44-39.39,8.92C661.64,875.45,658.46,876,655.25,875.3Z"/><path class="cls-2" d="M882.05,275.63c.25-1,.35-2.09,1.67-2.32C884,274.71,883.23,275.31,882.05,275.63Z"/></g></g></svg>