<svg id="Layer_1" data-name="Layer 1" xmlns="http://www.w3.org/2000/svg" viewBox="0 0 3926.73 1597.46"><defs><style>.cls-1{fill:#444545;}.cls-2{fill:#f06925;}</style></defs><path class="cls-1" d="M1737.41,1081.11a129.25,129.25,0,0,0,0-15c-1.2-10,3.17-12.71,12.74-12.92,28.39-.58,56.06-5.67,81.2-19.61,33-18.24,46.49-47.27,45.4-84.23-1-33.65-19.82-54.22-48.61-67.37-41.61-19-86.84-22.58-131.14-30.13-30.92-5.26-61.32-12.47-89.44-26.71-57.21-29-80.92-82.7-63.84-144.46,23.4-84.52,96.54-120.76,173.29-123,1.88,0,4.85-.72,5.47.21,10.25,14.51,2.19,30.91,4.47,46.32,1.34,9-4.81,9.9-11.75,10a144,144,0,0,0-58.31,12.33c-27.63,12.54-46.9,32.52-54.65,62.69-10.8,42.08,3.82,72.49,43.62,89.57,38.46,16.49,79.76,20.49,120.48,26.74a435.55,435.55,0,0,1,72.83,17.36c53.53,18.1,90.63,50.79,96.64,109.62s-15.92,106.64-64.19,141.32c-36.34,26.06-78.29,34.8-122.09,37.06-8.57.44-13.11-1.44-12.16-11.07C1737.89,1093.68,1737.41,1087.4,1737.41,1081.11Z"/><path class="cls-1" d="M3693.38,985.39c0,19.41-.37,38.78,0,58.08.27,9.6-6,14.72-11.55,20.49-62.27,63.68-171.31,62.62-234.91-2.18-77.21-78.57-78.13-227.41-1.92-306.79,61.49-64,166.16-67.92,228.88-8.89,13.66,12.75,22.34,25.93,19.81,45.68-1.68,12.74-.31,25.85-.31,38.66-6,.93-6.18-3.17-7.45-5.36-27.12-47.28-67-72.59-122.15-66.75-53.4,5.64-87.18,38.19-105.35,87a175.7,175.7,0,0,0,5,138.79c20.06,43.69,53.84,70,102.76,73.79,50.52,3.93,88.06-18.14,115.36-59.61,3-4.48,5.57-9.23,8.3-13.67Z"/><path class="cls-1" d="M2926.69,1111.14C2813,1110.9,2725.15,1032.57,2714.9,929c-10.73-106.88,61.18-204.17,165.68-223.47,7.75-1.44,20.49-7.38,23.36,2.32a68.35,68.35,0,0,1-1,42.19c-.82,2.12-6.53,2.73-10.08,3.41-63.3,13.12-100.57,53.23-115.19,114.44-20.84,87,26.58,168.44,109.55,187.3,51.89,11.82,100.47-.85,145.39-28.32a29.18,29.18,0,0,1,43.93,20c1.26,7.79-4.55,11.24-9.12,15.1C3024.53,1098.16,2973.18,1108.92,2926.69,1111.14Z"/><path class="cls-1" d="M2051.34,821.36V567.89c0-29.27,0-29.27,28.35-29.27a81.19,81.19,0,0,0,9.36,0c15.54-1.82,21,5,20.87,20.49-.58,52.57-.2,105.15-.2,157.72v360.49c0,26.41,0,26.41-25.83,26.44a87.82,87.82,0,0,0-11.24,0c-16.63,2.19-21.65-5.26-21.55-21.42C2051.61,995.37,2051.34,908.36,2051.34,821.36Z"/><path class="cls-1" d="M3273.93,823.2c0,85.74-.38,171.52.31,257.26.17,17.8-5.13,24.22-23.57,23.61-35.36-1.2-35.39-.21-35.39-36.14V564.65c0-25.76.27-26,26.37-26a84.77,84.77,0,0,0,11.27,0c17.08-2.36,21.52,6.21,21.25,21.76-.69,37.57-.24,75.15-.24,112.72Z"/><path class="cls-1" d="M935.57,814.94c0-15.65.54-31.26-.21-46.87-.48-9.57,5.36-15,10.9-20.5,40-41.33,88.47-51.65,142.92-37.2,55.14,14.62,86.12,52.68,99.72,106.38a269,269,0,0,1,7.17,67v195.36c0,24.15-.51,24.6-23.91,24.7-34.64.17-34.64.17-34.64-34.16V900.61c0-23.91-1.43-47.52-9.26-70.4-13.42-39.43-39.18-65.39-81.19-71.37S971.33,769.37,947,804.31c-2.74,3.9-5.3,7.93-7.93,11.89Z"/><path class="cls-1" d="M3765.25,820.88v259c0,8.5,4.48,21.18-9.22,22.95-14.45,1.85-31.29,5.09-39.86-12.13a74.48,74.48,0,0,1-9.06-34.16q.45-247.72,0-495.52c0-18.93,6.83-23.4,24.26-22.92,37.57,1,34.16-2.67,34.16,34.81Q3765.32,697,3765.25,820.88Z"/><path class="cls-1" d="M2123.45,820.09c3.42-25.14-7.62-48.13,6.83-66.57a127.29,127.29,0,0,1,93.91-48.92c82.94-5.91,145.59,46.8,157.14,130.73,4.2,30.74,3,61.25,3.14,91.89.24,52-.34,104,.31,156,.2,15.44-5.09,21.11-20.71,20.73-42.12-1-37.06,3.76-37.57-37-1.1-68.32,3.11-136.64-2.53-204.72a129.17,129.17,0,0,0-21-61.49c-34.67-52.16-108.29-58.48-153.27-12.88C2141.08,796.39,2134.21,806.64,2123.45,820.09Z"/><path class="cls-1" d="M2943.87,927c-47,0-94-.75-140.94.41-16.84.41-16.43-9.06-16.5-20,0-11.58-.79-21.93,17.08-21.76,74.54.82,149.07,0,223.61.72,15.78,0,18.24-4,15.54-19-10.79-59.16-52.33-103.67-109.75-113.54-12.3-2.09-13-8-13-17.7-.21-34.16-.45-34.16,32.66-28.76,73.88,11.92,130.42,70.78,146.41,152.15a440.12,440.12,0,0,1,5.33,48.47c1.29,15.27-4.92,19.47-19.41,19.3C3037.81,926.54,2990.84,927,2943.87,927Z"/><path class="cls-1" d="M862.36,905.73V734.93c0-9.63-2.22-22.41,12.95-22.1,14.41.27,32.38-6.83,39.9,14.31a91.2,91.2,0,0,1,5.94,31q-.3,159.6,0,319.26c0,26-.41,26.31-26,26.34a119.63,119.63,0,0,0-13.12,0c-15,1.71-19.88-5.47-19.78-19.64.41-50.7.17-101.42.17-152.12Z"/><path class="cls-1" d="M1341.53,907.78c0-57.56.51-115.15-.31-172.71-.24-16.67,4-23.5,22-23.13,41.92.93,36.35-.58,36.38,36.79q.21,164.31,0,328.59c0,26.34,0,26.34-25.79,26.37a119.45,119.45,0,0,0-13.11,0c-14.9,1.67-19.54-4.92-19.41-19.5C1341.9,1025.43,1341.53,966.61,1341.53,907.78Z"/><path class="cls-1" d="M2529.65,908c0-58.07.51-116.42-.34-174.59-.24-16.78,5.63-21.66,21.76-21.42,42.08.65,36.58-.75,36.62,36.51v328.59c0,26.58,0,26.58-27.33,26.58a77.58,77.58,0,0,0-9.4,0c-16.32,2.15-21.82-4.51-21.59-21.11C2530.16,1024.41,2529.65,966.2,2529.65,908Z"/><path class="cls-1" d="M1723.57,1078.58c0,8.17-.44,13.19,0,18.14,1,9.29-3,11.52-11.82,11.31a322.49,322.49,0,0,1-174.52-54.66c-9.19-6.11-11.24-12.6-5.26-21.72,1-1.57,1.77-3.42,2.77-4.89,19.06-30.74,13.9-31.25,45.29-12.43a256.33,256.33,0,0,0,118.54,37.58C1722,1053,1727.74,1061.2,1723.57,1078.58Z"/><path class="cls-1" d="M1740.65,585.14a118.86,118.86,0,0,0,0-14.62c-1.54-11.1,3.42-13.29,13.67-12.88,60.43,2.33,114.19,23.91,164.55,55.68,7.92,5,9.25,11,5.15,18.93-.3.54-.68,1.06-1,1.6-16.33,33.65-17.39,33.89-49.64,15.17-37.16-21.62-76.69-36.24-120.1-37.78C1729.69,610.39,1745.67,592.42,1740.65,585.14Z"/><path class="cls-1" d="M1329.19,586.68A39.56,39.56,0,0,1,1367.35,546a41,41,0,0,1,42.87,39c0,.39,0,.78,0,1.17a41.36,41.36,0,0,1-39.63,39.9,40,40,0,0,1-41.41-38.53Z"/><path class="cls-1" d="M2517.42,586.68a39.52,39.52,0,0,1,38.12-40.82,41,41,0,0,1,43,38.91c0,.39,0,.77,0,1.16A41.41,41.41,0,0,1,2559,626a40,40,0,0,1-41.52-38.5C2517.43,587.2,2517.42,586.94,2517.42,586.68Z"/><path class="cls-1" d="M725.46,716.42c-19.29-11.15-43.83-24.7-63.15-35.77-4.34-2.38-5.81-5.15-5.81-10.1.23-46.19,0-92.39.27-138.58,0-5.54-1.21-7.24-7-7.22q-76.89.38-153.8,0c-5.85,0-7.06,1.65-7,7.2q.35,58.24,0,116.5c0,5.32,1.85,8,6.19,10.64q81.54,48.6,163,97.49c22.32,13.37,44.85,26.49,67.3,39.71-.53,26.85.83,53.68-2.63,80.52-5.92,46-21.06,88.49-46.83,126.84q-76.44,114-212.53,135c-11.46,1.74-23.1,3.2-34.8,1.72V1074c29.9-2.49,59.3-7.31,86.78-20,74-34.31,119.88-91.13,136.82-171.11,2.77-13.2,3.62-26.57,4.51-40,.37-5.54-1.38-8.57-6.18-11.44-71.75-42.92-143.33-86.1-215.12-129-5.17-3.07-6.72-6.36-6.7-12.06q.24-112.74,0-225.5c0-6.6,1.51-8.49,8.3-8.47q140.19.38,280.36,0c7.06,0,8.16,2.13,8.13,8.5-.22,74.16,0,148.31-.32,222.45"/><path class="cls-2" d="M428.57,1074.07v66.34c-29.52,1.85-58.31-3.15-86-12.39-108.35-36.18-177.23-110-206.45-220.42-6.26-23.64-7.85-48-7.86-72.4L128.11,465c0-6.66,1.53-8.47,8.31-8.44q99,.4,198,0c6.92,0,8.86,1.65,8.84,8.72q-.33,184-.14,367.93c0,43.31,24.79,77.2,64.94,88.76,6.54,1.87,13.45,2.45,20.18,3.62l.25,67c-28.21.68-54.13-7.42-77.65-22.27-48.66-30.71-74.61-75.24-75-132.85-.75-101.31-.29-202.64-.08-304,0-6.77-1.39-9-8.59-8.78-21.07.51-42.16.34-63.23.07-5.35-.07-7.44.84-7.43,6.92.21,102.09-.29,204.18.28,306.25.64,115.38,80.74,210.85,193.94,232C403.24,1072.26,416,1072.73,428.57,1074.07Z"/><path class="cls-1" d="M428.61,992.57l-.25-67c.14-20.05.36-40.15.42-60.15q.11-40.38,0-80.75c0-5.66.2-8.31,6.6-4.25,15.88,10,32,19.51,48.21,29,3.94,2.29,5.54,4.81,5.54,9.56q-.27,77.7,0,155.4c0,4.89-1.38,6.8-6.34,8.1-14.43,3.74-28.65,8.22-43.55,9.86C435.69,992.71,432.2,993.32,428.61,992.57Z"/></svg>