<svg xmlns="http://www.w3.org/2000/svg" id="SvgjsSvg6151" width="4096" height="1731.1076719516284" version="1.1" xmlns:xlink="http://www.w3.org/1999/xlink" xmlns:svgjs="http://svgjs.com/svgjs"><defs id="SvgjsDefs6152"></defs><g id="SvgjsG6153" transform="translate(328, 328) scale(34.4)" opacity="1"><defs id="SvgjsDefs2424"></defs><g id="SvgjsG2425" transform="scale(0.21645021645021648)" opacity="1"><g id="SvgjsG2426" class="R_b6QXwUi" transform="translate(161.53187325459788, 0.8828739503943552) scale(1)" light-content="false" fill="#303030"><path d="				M 52.760853141945574, 53.260853141945574				m 0, -53.260853141945574
				a 53.260853141945574, 53.260853141945574, 0, 1, 0, 1, 0
				Z
			"></path></g><g id="SvgjsG2427" class="qN8fguSLdE" transform="translate(161.9145530366649, 1.394603530686334) scale(1.0623997936383693)" light-content="true" non-strokable="false" fill="#0d72ba"><path d="M53.333 10v6.692c16.85 1.68 30 15.951 30 33.308 0 17.354-13.15 31.624-30 33.304V90C73.864 88.298 90 71.052 90 50c0-21.055-16.136-38.294-36.667-40zm-6.666 73.304c-16.843-1.68-30-15.95-30-33.304 0-17.356 13.157-31.628 30-33.308V10C26.14 11.706 10 28.945 10 50c0 21.052 16.14 38.298 36.667 40v-6.696z"></path><path d="M30.3 46.667C31.888 37.21 40.091 30 50 30s18.112 7.21 19.7 16.667h6.735C74.795 33.516 63.601 23.333 50 23.333c-13.594 0-24.792 10.183-26.436 23.334H30.3zm39.4 6.666C68.112 62.786 59.909 70 50 70s-18.112-7.214-19.7-16.667h-6.735C25.208 66.484 36.406 76.667 50 76.667c13.601 0 24.795-10.183 26.436-23.334H69.7z"></path><path d="M50 36.667c-7.363 0-13.333 5.97-13.333 13.333S42.637 63.333 50 63.333c7.366 0 13.333-5.97 13.333-13.333S57.366 36.667 50 36.667zm0 20a6.667 6.667 0 1 1 0-13.334 6.667 6.667 0 0 1 0 13.334z"></path></g><g id="SvgjsG2428" class="text" transform="translate(52.144448118134704, 107.42628446290216) scale(1)" light-content="false" fill="#303030"><path d="M10.97 0L50.16 0L18.99 -42.52L49.4 -82.76L13.54 -82.76L1.13 -65.21L-10.67 -82.76L-49.25 -82.76L-18.84 -41L-50.16 0L-13.09 0L-0.38 -17.7Z"></path></g><g id="SvgjsG2429" class="text" transform="translate(317.7935795384892, 107.79) scale(1)" light-content="false" fill="#0d72ba"><path d="M-18.17 -79.61L-18.17 0L18.17 0L18.17 -79.61L49.74 -79.61L49.74 -107.79L-49.74 -107.79L-49.74 -79.61Z"></path></g><g id="SvgjsG2430" class="text" transform="translate(133.14008693038562, 108.6643793616828) scale(1)" light-content="false" fill="#0d72ba"><path d="M-18.17 -107.79L-18.17 0L18.17 0L18.17 -107.79Z"></path></g><g id="SvgjsG2431" class="text" transform="translate(418.50157032341485, 107.70453042690777) scale(1)" light-content="false" fill="#303030"><path d="M40.4 -24.96L4.54 -24.96L38.73 -63.09L38.73 -82.76L-37.37 -82.76L-37.37 -57.8L-4.39 -57.8L-38.58 -19.67L-38.58 0L40.4 0Z"></path></g><g id="SvgjsG2432" class="text" transform="translate(231, 138.36733166754308) scale(1)" light-content="false" fill="#303030"><path d="M-212.12 -6.86C-212.06 -7.85 -212.03 -8.4 -212.03 -8.51C-212.03 -10.35 -212.45 -11.93 -213.29 -13.26C-214.13 -14.58 -215.26 -15.59 -216.67 -16.27C-218.09 -16.95 -219.66 -17.29 -221.38 -17.29C-223.2 -17.29 -224.84 -16.92 -226.3 -16.18C-227.76 -15.43 -228.91 -14.39 -229.74 -13.06C-230.58 -11.72 -231 -10.2 -231 -8.51C-231 -6.83 -230.58 -5.32 -229.73 -3.97C-228.88 -2.63 -227.68 -1.58 -226.13 -0.82C-224.57 -0.07 -222.77 0.31 -220.72 0.31C-217.43 0.31 -214.96 -0.6 -213.3 -2.42L-216.97 -6.12C-217.57 -5.66 -218.12 -5.34 -218.63 -5.15C-219.14 -4.97 -219.76 -4.87 -220.51 -4.87C-221.38 -4.87 -222.1 -5.05 -222.68 -5.39C-223.26 -5.73 -223.67 -6.22 -223.92 -6.86ZM-223.12 -11.92C-222.64 -12.32 -222.04 -12.51 -221.31 -12.51C-220.59 -12.51 -219.99 -12.31 -219.51 -11.91C-219.04 -11.5 -218.73 -10.95 -218.58 -10.25L-224.05 -10.25C-223.9 -10.97 -223.59 -11.53 -223.12 -11.92Z M-197.1 0L-188.72 0L-196.73 -11.24L-189.18 -21.73L-197.07 -21.73L-200.67 -16.27L-204.36 -21.73L-212.59 -21.73L-205.02 -10.96L-212.87 0L-204.52 0L-200.85 -5.81Z M-175.83 -0.59L-177.51 -5.46C-177.96 -5.15 -178.49 -5 -179.09 -5C-179.53 -5 -179.88 -5.14 -180.15 -5.43C-180.42 -5.72 -180.55 -6.13 -180.55 -6.64L-180.55 -10.93L-177.07 -10.93L-177.07 -16.05L-180.55 -16.05L-180.55 -20.8L-187.57 -20.8L-187.57 -16.05L-189.9 -16.05L-189.9 -10.93L-187.57 -10.93L-187.57 -6.58C-187.57 -4.28 -186.93 -2.56 -185.64 -1.41C-184.36 -0.26 -182.53 0.31 -180.15 0.31C-178.33 0.31 -176.89 0.01 -175.83 -0.59Z M-156.55 -6.86C-156.49 -7.85 -156.46 -8.4 -156.46 -8.51C-156.46 -10.35 -156.88 -11.93 -157.72 -13.26C-158.55 -14.58 -159.68 -15.59 -161.1 -16.27C-162.52 -16.95 -164.09 -17.29 -165.8 -17.29C-167.62 -17.29 -169.27 -16.92 -170.72 -16.18C-172.18 -15.43 -173.33 -14.39 -174.17 -13.06C-175.01 -11.72 -175.43 -10.2 -175.43 -8.51C-175.43 -6.83 -175 -5.32 -174.15 -3.97C-173.31 -2.63 -172.11 -1.58 -170.55 -0.82C-169 -0.07 -167.2 0.31 -165.15 0.31C-161.86 0.31 -159.39 -0.6 -157.73 -2.42L-161.39 -6.12C-162 -5.66 -162.55 -5.34 -163.06 -5.15C-163.56 -4.97 -164.19 -4.87 -164.93 -4.87C-165.8 -4.87 -166.53 -5.05 -167.11 -5.39C-167.69 -5.73 -168.1 -6.22 -168.35 -6.86ZM-167.54 -11.92C-167.07 -12.32 -166.47 -12.51 -165.74 -12.51C-165.02 -12.51 -164.42 -12.31 -163.94 -11.91C-163.46 -11.5 -163.15 -10.95 -163.01 -10.25L-168.47 -10.25C-168.33 -10.97 -168.02 -11.53 -167.54 -11.92Z M-137.41 -15.4C-138.68 -16.66 -140.37 -17.29 -142.46 -17.29C-143.47 -17.29 -144.41 -17.13 -145.28 -16.8C-146.15 -16.46 -146.92 -15.97 -147.58 -15.31L-147.58 -16.98L-154.25 -16.98L-154.25 0L-147.24 0L-147.24 -7.98C-147.24 -9.16 -146.99 -10.02 -146.51 -10.57C-146.02 -11.12 -145.39 -11.39 -144.6 -11.39C-143.21 -11.39 -142.52 -10.42 -142.52 -8.48L-142.52 0L-135.5 0L-135.5 -9.69C-135.5 -12.23 -136.14 -14.14 -137.41 -15.4Z M-113.37 -23.04L-120.38 -23.04L-120.38 -15.83C-121.38 -16.81 -122.81 -17.29 -124.7 -17.29C-126.19 -17.29 -127.56 -16.94 -128.81 -16.22C-130.06 -15.51 -131.06 -14.48 -131.79 -13.15C-132.53 -11.81 -132.89 -10.27 -132.89 -8.51C-132.89 -6.75 -132.53 -5.2 -131.79 -3.85C-131.06 -2.5 -130.06 -1.47 -128.81 -0.76C-127.56 -0.05 -126.19 0.31 -124.7 0.31C-122.61 0.31 -121.06 -0.26 -120.04 -1.4L-120.04 0L-113.37 0ZM-121.03 -6.04C-121.55 -5.45 -122.21 -5.15 -123.02 -5.15C-123.83 -5.15 -124.49 -5.45 -125.01 -6.04C-125.53 -6.63 -125.78 -7.45 -125.78 -8.51C-125.78 -9.56 -125.53 -10.38 -125.01 -10.96C-124.49 -11.54 -123.83 -11.83 -123.02 -11.83C-122.21 -11.83 -121.55 -11.54 -121.03 -10.96C-120.52 -10.38 -120.26 -9.56 -120.26 -8.51C-120.26 -7.45 -120.52 -6.63 -121.03 -6.04Z M-92.29 -6.86C-92.22 -7.85 -92.19 -8.4 -92.19 -8.51C-92.19 -10.35 -92.61 -11.93 -93.45 -13.26C-94.29 -14.58 -95.42 -15.59 -96.83 -16.27C-98.25 -16.95 -99.82 -17.29 -101.54 -17.29C-103.36 -17.29 -105 -16.92 -106.46 -16.18C-107.92 -15.43 -109.07 -14.39 -109.9 -13.06C-110.74 -11.72 -111.16 -10.2 -111.16 -8.51C-111.16 -6.83 -110.74 -5.32 -109.89 -3.97C-109.04 -2.63 -107.84 -1.58 -106.29 -0.82C-104.74 -0.07 -102.93 0.31 -100.89 0.31C-97.59 0.31 -95.12 -0.6 -93.47 -2.42L-97.13 -6.12C-97.73 -5.66 -98.28 -5.34 -98.79 -5.15C-99.3 -4.97 -99.92 -4.87 -100.67 -4.87C-101.54 -4.87 -102.26 -5.05 -102.84 -5.39C-103.42 -5.73 -103.83 -6.22 -104.08 -6.86ZM-103.28 -11.92C-102.8 -12.32 -102.2 -12.51 -101.48 -12.51C-100.75 -12.51 -100.15 -12.31 -99.67 -11.91C-99.2 -11.5 -98.89 -10.95 -98.74 -10.25L-104.21 -10.25C-104.06 -10.97 -103.75 -11.53 -103.28 -11.92Z M-71.2 -23.04L-78.22 -23.04L-78.22 -15.83C-79.21 -16.81 -80.65 -17.29 -82.54 -17.29C-84.03 -17.29 -85.4 -16.94 -86.65 -16.22C-87.9 -15.51 -88.9 -14.48 -89.63 -13.15C-90.37 -11.81 -90.73 -10.27 -90.73 -8.51C-90.73 -6.75 -90.37 -5.2 -89.63 -3.85C-88.9 -2.5 -87.9 -1.47 -86.65 -0.76C-85.4 -0.05 -84.03 0.31 -82.54 0.31C-80.45 0.31 -78.89 -0.26 -77.88 -1.4L-77.88 0L-71.2 0ZM-78.87 -6.04C-79.39 -5.45 -80.05 -5.15 -80.86 -5.15C-81.67 -5.15 -82.33 -5.45 -82.85 -6.04C-83.36 -6.63 -83.62 -7.45 -83.62 -8.51C-83.62 -9.56 -83.36 -10.38 -82.85 -10.96C-82.33 -11.54 -81.67 -11.83 -80.86 -11.83C-80.05 -11.83 -79.39 -11.54 -78.87 -10.96C-78.36 -10.38 -78.1 -9.56 -78.1 -8.51C-78.1 -7.45 -78.36 -6.63 -78.87 -6.04Z M-53.48 -0.96C-51.61 0.01 -49.51 0.5 -47.18 0.5C-44.84 0.5 -42.74 0.01 -40.87 -0.96C-39.01 -1.94 -37.55 -3.29 -36.5 -5.01C-35.44 -6.74 -34.91 -8.69 -34.91 -10.87C-34.91 -13.04 -35.44 -14.99 -36.5 -16.72C-37.55 -18.45 -39.01 -19.8 -40.87 -20.77C-42.74 -21.74 -44.84 -22.23 -47.18 -22.23C-49.51 -22.23 -51.61 -21.74 -53.48 -20.77C-55.34 -19.8 -56.8 -18.45 -57.86 -16.72C-58.91 -14.99 -59.44 -13.04 -59.44 -10.87C-59.44 -8.69 -58.91 -6.74 -57.86 -5.01C-56.8 -3.29 -55.34 -1.94 -53.48 -0.96ZM-44.71 -6.1C-45.44 -5.66 -46.26 -5.43 -47.18 -5.43C-48.09 -5.43 -48.91 -5.66 -49.64 -6.1C-50.38 -6.55 -50.96 -7.18 -51.4 -7.99C-51.83 -8.81 -52.05 -9.77 -52.05 -10.87C-52.05 -11.96 -51.83 -12.92 -51.4 -13.74C-50.96 -14.56 -50.38 -15.19 -49.64 -15.63C-48.91 -16.08 -48.09 -16.3 -47.18 -16.3C-46.26 -16.3 -45.44 -16.08 -44.71 -15.63C-43.97 -15.19 -43.39 -14.56 -42.95 -13.74C-42.52 -12.92 -42.3 -11.96 -42.3 -10.87C-42.3 -9.77 -42.52 -8.81 -42.95 -7.99C-43.39 -7.18 -43.97 -6.55 -44.71 -6.1Z M-17.01 -16.22C-18.27 -16.94 -19.64 -17.29 -21.13 -17.29C-23.22 -17.29 -24.77 -16.72 -25.78 -15.59L-25.78 -16.98L-32.46 -16.98L-32.46 6.02L-25.44 6.02L-25.44 -1.15C-24.45 -0.18 -23.01 0.31 -21.13 0.31C-19.64 0.31 -18.27 -0.05 -17.01 -0.76C-15.76 -1.47 -14.77 -2.5 -14.03 -3.83C-13.3 -5.17 -12.93 -6.72 -12.93 -8.48C-12.93 -10.23 -13.3 -11.79 -14.03 -13.13C-14.77 -14.48 -15.76 -15.51 -17.01 -16.22ZM-20.82 -6.02C-21.33 -5.44 -22 -5.15 -22.8 -5.15C-23.61 -5.15 -24.27 -5.44 -24.79 -6.02C-25.31 -6.6 -25.57 -7.42 -25.57 -8.48C-25.57 -9.53 -25.31 -10.35 -24.79 -10.94C-24.27 -11.53 -23.61 -11.83 -22.8 -11.83C-22 -11.83 -21.33 -11.53 -20.82 -10.94C-20.3 -10.35 -20.04 -9.53 -20.04 -8.48C-20.04 -7.42 -20.3 -6.6 -20.82 -6.02Z M7.25 -6.86C7.31 -7.85 7.34 -8.4 7.34 -8.51C7.34 -10.35 6.92 -11.93 6.09 -13.26C5.25 -14.58 4.12 -15.59 2.7 -16.27C1.28 -16.95 -0.28 -17.29 -2 -17.29C-3.82 -17.29 -5.46 -16.92 -6.92 -16.18C-8.38 -15.43 -9.53 -14.39 -10.37 -13.06C-11.21 -11.72 -11.63 -10.2 -11.63 -8.51C-11.63 -6.83 -11.2 -5.32 -10.35 -3.97C-9.51 -2.63 -8.3 -1.58 -6.75 -0.82C-5.2 -0.07 -3.4 0.31 -1.35 0.31C1.94 0.31 4.41 -0.6 6.07 -2.42L2.41 -6.12C1.81 -5.66 1.25 -5.34 0.75 -5.15C0.24 -4.97 -0.39 -4.87 -1.13 -4.87C-2 -4.87 -2.73 -5.05 -3.31 -5.39C-3.89 -5.73 -4.3 -6.22 -4.55 -6.86ZM-3.74 -11.92C-3.27 -12.32 -2.66 -12.51 -1.94 -12.51C-1.22 -12.51 -0.62 -12.31 -0.14 -11.91C0.34 -11.5 0.65 -10.95 0.79 -10.25L-4.67 -10.25C-4.53 -10.97 -4.22 -11.53 -3.74 -11.92Z M21.72 -17.29C19.3 -17.29 17.46 -16.58 16.22 -15.15L16.22 -16.98L9.55 -16.98L9.55 0L16.56 0L16.56 -7.54C16.56 -9.99 17.76 -11.21 20.16 -11.21C20.64 -11.21 21.16 -11.17 21.72 -11.08Z M37.99 -15.29C36.41 -16.63 34.14 -17.29 31.16 -17.29C29.79 -17.29 28.42 -17.12 27.04 -16.78C25.67 -16.44 24.49 -15.97 23.52 -15.37L25.75 -10.74C26.31 -11.16 26.98 -11.48 27.77 -11.72C28.56 -11.96 29.33 -12.08 30.1 -12.08C32 -12.08 33.07 -11.41 33.3 -10.09L30.47 -10.09C27.86 -10.09 25.92 -9.66 24.64 -8.79C23.35 -7.92 22.71 -6.64 22.71 -4.97C22.71 -3.97 22.95 -3.08 23.44 -2.28C23.93 -1.49 24.64 -0.85 25.58 -0.39C26.52 0.08 27.67 0.31 29.01 0.31C31.41 0.31 33.02 -0.54 33.83 -2.24L33.83 0L40.34 0L40.34 -9.13C40.34 -11.9 39.56 -13.96 37.99 -15.29ZM32.46 -4.32C32.07 -4.05 31.62 -3.91 31.12 -3.91C30.61 -3.91 30.2 -4.04 29.9 -4.3C29.6 -4.56 29.45 -4.88 29.45 -5.28C29.45 -6.23 30.16 -6.71 31.59 -6.71L33.33 -6.71L33.33 -5.53C33.14 -4.99 32.85 -4.58 32.46 -4.32Z M55.9 -0.59L54.22 -5.46C53.77 -5.15 53.24 -5 52.64 -5C52.2 -5 51.85 -5.14 51.58 -5.43C51.31 -5.72 51.18 -6.13 51.18 -6.64L51.18 -10.93L54.66 -10.93L54.66 -16.05L51.18 -16.05L51.18 -20.8L44.16 -20.8L44.16 -16.05L41.84 -16.05L41.84 -10.93L44.16 -10.93L44.16 -6.58C44.16 -4.28 44.81 -2.56 46.09 -1.41C47.37 -0.26 49.2 0.31 51.58 0.31C53.41 0.31 54.84 0.01 55.9 -0.59Z M57.67 -16.98L57.67 0L64.69 0L64.69 -16.98ZM58.12 -19.36C58.9 -18.68 59.91 -18.35 61.18 -18.35C62.46 -18.35 63.48 -18.7 64.25 -19.39C65.02 -20.08 65.4 -20.97 65.4 -22.04C65.4 -23.06 65.02 -23.89 64.25 -24.53C63.48 -25.17 62.46 -25.49 61.18 -25.49C59.91 -25.49 58.9 -25.15 58.12 -24.48C57.34 -23.81 56.95 -22.95 56.95 -21.92C56.95 -20.88 57.34 -20.03 58.12 -19.36Z M71.69 -0.82C73.19 -0.07 74.88 0.31 76.76 0.31C78.67 0.31 80.37 -0.07 81.87 -0.82C83.37 -1.58 84.54 -2.62 85.38 -3.96C86.22 -5.29 86.64 -6.81 86.64 -8.51C86.64 -10.2 86.22 -11.72 85.38 -13.06C84.54 -14.39 83.37 -15.43 81.87 -16.18C80.37 -16.92 78.67 -17.29 76.76 -17.29C74.88 -17.29 73.19 -16.92 71.69 -16.18C70.19 -15.43 69.01 -14.39 68.16 -13.06C67.31 -11.72 66.89 -10.2 66.89 -8.51C66.89 -6.81 67.31 -5.29 68.16 -3.96C69.01 -2.62 70.19 -1.58 71.69 -0.82ZM78.75 -6.04C78.23 -5.45 77.57 -5.15 76.76 -5.15C75.96 -5.15 75.29 -5.45 74.78 -6.04C74.26 -6.63 74 -7.45 74 -8.51C74 -9.56 74.26 -10.38 74.78 -10.96C75.29 -11.54 75.96 -11.83 76.76 -11.83C77.57 -11.83 78.23 -11.54 78.75 -10.96C79.27 -10.38 79.53 -9.56 79.53 -8.51C79.53 -7.45 79.27 -6.63 78.75 -6.04Z M105.68 -15.4C104.41 -16.66 102.73 -17.29 100.64 -17.29C99.62 -17.29 98.68 -17.13 97.81 -16.8C96.94 -16.46 96.18 -15.97 95.51 -15.31L95.51 -16.98L88.84 -16.98L88.84 0L95.86 0L95.86 -7.98C95.86 -9.16 96.1 -10.02 96.59 -10.57C97.07 -11.12 97.71 -11.39 98.49 -11.39C99.88 -11.39 100.57 -10.42 100.57 -8.48L100.57 0L107.59 0L107.59 -9.69C107.59 -12.23 106.95 -14.14 105.68 -15.4Z M125.19 -0.95C127.04 0.02 129.11 0.5 131.4 0.5C133.52 0.5 135.4 0.12 137.05 -0.62C138.71 -1.37 140.08 -2.44 141.15 -3.85L136.53 -7.98C135.18 -6.28 133.6 -5.43 131.78 -5.43C130.24 -5.43 129.01 -5.92 128.08 -6.91C127.15 -7.89 126.68 -9.21 126.68 -10.87C126.68 -12.52 127.15 -13.84 128.08 -14.82C129.01 -15.81 130.24 -16.3 131.78 -16.3C133.6 -16.3 135.18 -15.45 136.53 -13.75L141.15 -17.88C140.08 -19.29 138.71 -20.37 137.05 -21.11C135.4 -21.86 133.52 -22.23 131.4 -22.23C129.11 -22.23 127.04 -21.75 125.19 -20.79C123.35 -19.82 121.91 -18.48 120.86 -16.75C119.82 -15.02 119.3 -13.06 119.3 -10.87C119.3 -8.67 119.82 -6.71 120.86 -4.98C121.91 -3.25 123.35 -1.91 125.19 -0.95Z M160.56 -6.86C160.62 -7.85 160.65 -8.4 160.65 -8.51C160.65 -10.35 160.23 -11.93 159.39 -13.26C158.55 -14.58 157.43 -15.59 156.01 -16.27C154.59 -16.95 153.02 -17.29 151.3 -17.29C149.48 -17.29 147.84 -16.92 146.38 -16.18C144.92 -15.43 143.78 -14.39 142.94 -13.06C142.1 -11.72 141.68 -10.2 141.68 -8.51C141.68 -6.83 142.1 -5.32 142.95 -3.97C143.8 -2.63 145 -1.58 146.55 -0.82C148.11 -0.07 149.91 0.31 151.96 0.31C155.25 0.31 157.72 -0.6 159.38 -2.42L155.71 -6.12C155.11 -5.66 154.56 -5.34 154.05 -5.15C153.55 -4.97 152.92 -4.87 152.17 -4.87C151.3 -4.87 150.58 -5.05 150 -5.39C149.42 -5.73 149.01 -6.22 148.76 -6.86ZM149.57 -11.92C150.04 -12.32 150.64 -12.51 151.37 -12.51C152.09 -12.51 152.69 -12.31 153.17 -11.91C153.64 -11.5 153.95 -10.95 154.1 -10.25L148.63 -10.25C148.78 -10.97 149.09 -11.53 149.57 -11.92Z M179.7 -15.4C178.42 -16.66 176.74 -17.29 174.65 -17.29C173.64 -17.29 172.7 -17.13 171.83 -16.8C170.96 -16.46 170.19 -15.97 169.53 -15.31L169.53 -16.98L162.85 -16.98L162.85 0L169.87 0L169.87 -7.98C169.87 -9.16 170.11 -10.02 170.6 -10.57C171.09 -11.12 171.72 -11.39 172.51 -11.39C173.9 -11.39 174.59 -10.42 174.59 -8.48L174.59 0L181.61 0L181.61 -9.69C181.61 -12.23 180.97 -14.14 179.7 -15.4Z M197.16 -0.59L195.48 -5.46C195.03 -5.15 194.5 -5 193.9 -5C193.47 -5 193.11 -5.14 192.84 -5.43C192.58 -5.72 192.44 -6.13 192.44 -6.64L192.44 -10.93L195.92 -10.93L195.92 -16.05L192.44 -16.05L192.44 -20.8L185.42 -20.8L185.42 -16.05L183.1 -16.05L183.1 -10.93L185.42 -10.93L185.42 -6.58C185.42 -4.28 186.07 -2.56 187.35 -1.41C188.63 -0.26 190.46 0.31 192.84 0.31C194.67 0.31 196.1 0.01 197.16 -0.59Z M211.1 -17.29C208.68 -17.29 206.85 -16.58 205.61 -15.15L205.61 -16.98L198.93 -16.98L198.93 0L205.95 0L205.95 -7.54C205.95 -9.99 207.15 -11.21 209.55 -11.21C210.02 -11.21 210.54 -11.17 211.1 -11.08Z M230.91 -6.86C230.97 -7.85 231 -8.4 231 -8.51C231 -10.35 230.58 -11.93 229.74 -13.26C228.91 -14.58 227.78 -15.59 226.36 -16.27C224.94 -16.95 223.37 -17.29 221.66 -17.29C219.83 -17.29 218.19 -16.92 216.74 -16.18C215.28 -15.43 214.13 -14.39 213.29 -13.06C212.45 -11.72 212.03 -10.2 212.03 -8.51C212.03 -6.83 212.46 -5.32 213.3 -3.97C214.15 -2.63 215.35 -1.58 216.91 -0.82C218.46 -0.07 220.26 0.31 222.31 0.31C225.6 0.31 228.07 -0.6 229.73 -2.42L226.06 -6.12C225.46 -5.66 224.91 -5.34 224.4 -5.15C223.9 -4.97 223.27 -4.87 222.53 -4.87C221.66 -4.87 220.93 -5.05 220.35 -5.39C219.77 -5.73 219.36 -6.22 219.11 -6.86ZM219.92 -11.92C220.39 -12.32 220.99 -12.51 221.72 -12.51C222.44 -12.51 223.04 -12.31 223.52 -11.91C223.99 -11.5 224.31 -10.95 224.45 -10.25L218.99 -10.25C219.13 -10.97 219.44 -11.53 219.92 -11.92Z"></path></g></g></g></svg>